<svg width="78" height="78" viewBox="0 0 78 78" fill="none" xmlns="http://www.w3.org/2000/svg">
<path d="M38.9246 77.9198H0.949223C0.824532 77.9199 0.701051 77.8954 0.585842 77.8476C0.470634 77.7999 0.365957 77.7298 0.277798 77.6416C0.189639 77.5533 0.119727 77.4485 0.07206 77.3331C0.0243932 77.2178 -9.34536e-05 77.0941 2.6802e-07 76.9693V38.9505C-9.34536e-05 38.8257 0.0243932 38.7021 0.07206 38.5867C0.119727 38.4714 0.189639 38.3666 0.277798 38.2783C0.365957 38.19 0.470634 38.12 0.585842 38.0722C0.701051 38.0245 0.824532 37.9999 0.949223 38H38.9246C39.0493 37.9999 39.1727 38.0245 39.2879 38.0722C39.4032 38.12 39.5078 38.19 39.596 38.2783C39.6841 38.3666 39.7541 38.4714 39.8017 38.5867C39.8494 38.7021 39.8739 38.8257 39.8738 38.9505V76.9691C39.8739 77.0939 39.8494 77.2175 39.8017 77.3329C39.7541 77.4483 39.6842 77.5531 39.596 77.6414C39.5078 77.7297 39.4032 77.7997 39.288 77.8475C39.1728 77.8953 39.0493 77.9199 38.9246 77.9198ZM1.89868 76.0187H37.9751V39.9009H1.89868V76.0187Z" fill="#141414"/>
<path d="M4.38331 45.5315C4.49849 45.5793 4.62196 45.6039 4.74665 45.6038C4.87135 45.604 4.99485 45.5795 5.11004 45.5316C5.22523 45.4838 5.32983 45.4137 5.4178 45.3252L7.31649 43.4243C7.4047 43.3361 7.47469 43.2314 7.52244 43.1161C7.57018 43.0008 7.59476 42.8772 7.59476 42.7524C7.59476 42.6276 7.57018 42.504 7.52244 42.3887C7.47469 42.2734 7.4047 42.1687 7.31649 42.0805C7.22839 41.9922 7.12377 41.9221 7.00861 41.8743C6.89345 41.8265 6.77 41.8019 6.64533 41.8019C6.52066 41.8019 6.39721 41.8265 6.28205 41.8743C6.16689 41.9221 6.06227 41.9922 5.97417 42.0805L4.07549 43.9813C3.98727 44.0695 3.91729 44.1743 3.86954 44.2896C3.82179 44.4048 3.79722 44.5284 3.79722 44.6532C3.79722 44.7781 3.82179 44.9016 3.86954 45.0169C3.91729 45.1322 3.98727 45.237 4.07549 45.3252C4.16353 45.4136 4.26813 45.4837 4.38331 45.5315Z" fill="#141414"/>
<path d="M4.21897 51.1467C4.37518 51.2511 4.55882 51.3067 4.74665 51.3066C4.87135 51.3067 4.99484 51.2822 5.11005 51.2344C5.22526 51.1866 5.32993 51.1166 5.41804 51.0282L13.013 43.4243C13.384 43.0531 13.3838 42.4519 13.013 42.0805C12.6423 41.7091 12.0415 41.7091 11.6705 42.0805L4.07549 49.6841C3.94256 49.817 3.85199 49.9863 3.81526 50.1707C3.77853 50.3551 3.79728 50.5463 3.86915 50.72C3.94102 50.8938 4.06276 51.0422 4.21897 51.1467Z" fill="#141414"/>
<path d="M76.9246 39.9198H38.9492C38.8245 39.9199 38.7011 39.8954 38.5858 39.8476C38.4706 39.7999 38.366 39.7298 38.2778 39.6416C38.1896 39.5533 38.1197 39.4485 38.0721 39.3331C38.0244 39.2178 37.9999 39.0941 38 38.9693V0.950546C37.9999 0.825712 38.0244 0.702084 38.0721 0.586732C38.1197 0.471379 38.1896 0.366565 38.2778 0.278283C38.366 0.190001 38.4706 0.119983 38.5858 0.0722333C38.7011 0.0244831 38.8245 -6.24579e-05 38.9492 1.19351e-07H76.9246C77.0493 -6.24579e-05 77.1727 0.0244831 77.2879 0.0722333C77.4032 0.119983 77.5078 0.190001 77.596 0.278283C77.6841 0.366565 77.7541 0.471379 77.8017 0.586732C77.8494 0.702084 77.8739 0.825712 77.8738 0.950546V38.9691C77.8739 39.0939 77.8494 39.2175 77.8017 39.3329C77.7541 39.4483 77.6842 39.5531 77.596 39.6414C77.5078 39.7297 77.4032 39.7997 77.288 39.8475C77.1728 39.8953 77.0493 39.9199 76.9246 39.9198ZM39.8987 38.0187H75.9751V1.90085H39.8987V38.0187Z" fill="#141414"/>
<path d="M42.3833 7.5315C42.4985 7.57931 42.622 7.60388 42.7466 7.6038C42.8713 7.60399 42.9949 7.57947 43.11 7.53165C43.2252 7.48383 43.3298 7.41366 43.4178 7.32518L45.3165 5.42432C45.4047 5.33613 45.4747 5.23139 45.5224 5.11609C45.5702 5.0008 45.5948 4.87721 45.5948 4.7524C45.5948 4.62758 45.5702 4.504 45.5224 4.3887C45.4747 4.27341 45.4047 4.16867 45.3165 4.08047C45.2284 3.99215 45.1238 3.92209 45.0086 3.87429C44.8934 3.82649 44.77 3.80188 44.6453 3.80188C44.5207 3.80188 44.3972 3.82649 44.2821 3.87429C44.1669 3.92209 44.0623 3.99215 43.9742 4.08047L42.0755 5.98132C41.9873 6.06952 41.9173 6.17426 41.8695 6.28955C41.8218 6.40485 41.7972 6.52844 41.7972 6.65325C41.7972 6.77806 41.8218 6.90165 41.8695 7.01694C41.9173 7.13224 41.9873 7.23698 42.0755 7.32518C42.1635 7.41357 42.2681 7.48369 42.3833 7.5315Z" fill="#141414"/>
<path d="M42.219 13.1467C42.3752 13.2511 42.5588 13.3067 42.7466 13.3066C42.8713 13.3067 42.9948 13.2822 43.1101 13.2344C43.2253 13.1866 43.3299 13.1166 43.418 13.0282L51.013 5.42432C51.384 5.05314 51.3838 4.45189 51.013 4.08047C50.6423 3.70906 50.0415 3.70906 49.6705 4.08047L42.0755 11.6841C41.9426 11.817 41.852 11.9863 41.8153 12.1707C41.7785 12.3551 41.7973 12.5463 41.8692 12.72C41.941 12.8938 42.0628 13.0422 42.219 13.1467Z" fill="#141414"/>
<path d="M76.9035 77.9569H38.9284C38.8037 77.957 38.6803 77.9325 38.565 77.8848C38.4498 77.8371 38.3451 77.7671 38.2569 77.6788C38.1688 77.5906 38.0988 77.4858 38.0511 77.3704C38.0034 77.2551 37.9789 77.1315 37.979 77.0066V38.9879C37.9789 38.8631 38.0034 38.7394 38.0511 38.6241C38.0988 38.5087 38.1687 38.4039 38.2569 38.3156C38.3451 38.2273 38.4498 38.1573 38.565 38.1096C38.6802 38.0618 38.8037 38.0373 38.9284 38.0374H76.9035C77.0282 38.0373 77.1517 38.0618 77.267 38.1096C77.3822 38.1573 77.4869 38.2273 77.5751 38.3156C77.6632 38.4039 77.7332 38.5087 77.7809 38.6241C77.8286 38.7394 77.8531 38.8631 77.853 38.9879V77.0066C77.8531 77.1315 77.8285 77.2551 77.7809 77.3704C77.7332 77.4858 77.6632 77.5906 77.575 77.6788C77.4869 77.7671 77.3822 77.8371 77.2669 77.8848C77.1517 77.9325 77.0282 77.957 76.9035 77.9569ZM39.8777 76.0561H75.9543V39.9384H39.8777V76.0561Z" fill="#141414"/>
<path d="M57.9157 70.3534C57.791 70.3535 57.6675 70.329 57.5523 70.2812C57.4371 70.2335 57.3324 70.1634 57.2442 70.0752C57.1561 69.9869 57.0862 69.8821 57.0385 69.7667C56.9908 69.6514 56.9663 69.5277 56.9664 69.4029C56.9664 69.0986 57.0111 61.9273 60.9606 59.2524C62.7794 58.0161 65.0695 57.9381 67.762 59.0166C68.2497 59.2115 68.4852 59.7649 68.2906 60.251C68.0959 60.7371 67.5431 60.975 67.0576 60.7802C64.992 59.956 63.2992 59.9669 62.027 60.8249C58.9119 62.9318 58.8654 69.3401 58.8654 69.4031C58.865 69.6551 58.7648 69.8967 58.5867 70.0749C58.4087 70.253 58.1674 70.3532 57.9157 70.3534Z" fill="#141414"/>
<path d="M57.9158 70.3536C57.664 70.3534 57.4227 70.2532 57.2447 70.0749C57.0667 69.8967 56.9667 69.655 56.9665 69.403C56.9665 69.34 56.9202 62.9319 53.8049 60.8248C52.5346 59.967 50.8417 59.9561 48.7743 60.7801C48.2904 60.9749 47.736 60.7372 47.5413 60.2509C47.3467 59.7646 47.5822 59.2114 48.0699 59.0165C50.7624 57.9379 53.0541 58.0179 54.8713 59.2523C58.8208 61.9271 58.8655 69.0985 58.8655 69.4028C58.8655 69.5276 58.8409 69.6513 58.7932 69.7667C58.7455 69.882 58.6756 69.9869 58.5874 70.0752C58.4992 70.1635 58.3945 70.2335 58.2792 70.2813C58.164 70.329 58.0405 70.3536 57.9158 70.3536ZM57.9158 58.9477C57.6645 58.9474 57.4235 58.8474 57.2456 58.6697C57.0678 58.4919 56.9674 58.2509 56.9665 57.9993C56.9627 57.045 56.6514 54.3478 55.2606 53.347C54.5821 52.8571 53.6844 52.8052 52.5199 53.1969C52.0267 53.3637 51.4851 53.0927 51.3183 52.5954C51.2392 52.3561 51.2581 52.0952 51.3707 51.8697C51.4833 51.6443 51.6804 51.4727 51.9191 51.3924C53.6825 50.8037 55.1807 50.9448 56.3729 51.8083C58.8372 53.5847 58.865 57.8173 58.865 57.9974C58.8646 58.2491 58.7647 58.4903 58.5871 58.6684C58.4096 58.8465 58.1688 58.9469 57.9174 58.9477H57.9158Z" fill="#141414"/>
<path d="M57.9157 58.9476C57.791 58.9477 57.6675 58.9232 57.5523 58.8754C57.4371 58.8277 57.3324 58.7577 57.2443 58.6694C57.1561 58.5812 57.0862 58.4764 57.0385 58.361C56.9909 58.2457 56.9664 58.1221 56.9665 57.9973C56.9665 57.8171 56.9943 53.5845 59.4584 51.8081C60.649 50.9428 62.1489 50.8036 63.9124 51.3922C64.1511 51.4724 64.3483 51.644 64.4609 51.8695C64.5735 52.095 64.5922 52.3559 64.5129 52.5952C64.4738 52.7139 64.4116 52.8236 64.33 52.9181C64.2483 53.0127 64.1488 53.0901 64.0372 53.146C63.9255 53.2019 63.8039 53.2351 63.6794 53.2438C63.5549 53.2526 63.4299 53.2365 63.3116 53.1967C62.1487 52.8051 61.2494 52.8588 60.567 53.3487C59.1708 54.3569 58.8649 57.0467 58.8649 57.9973C58.865 58.1221 58.8406 58.2457 58.7929 58.3611C58.7453 58.4764 58.6753 58.5812 58.5872 58.6695C58.499 58.7578 58.3943 58.8278 58.2791 58.8755C58.1639 58.9232 58.0404 58.9477 57.9157 58.9476ZM50.3207 70.3534C48.7502 70.3534 47.4726 69.0743 47.4726 67.502C47.4726 65.9297 48.7502 64.6508 50.3207 64.6508C51.8912 64.6508 53.1689 65.9297 53.1689 67.502C53.1689 69.0743 51.8914 70.3534 50.3207 70.3534ZM50.3207 66.5515C49.7979 66.5515 49.3715 66.9783 49.3715 67.5018C49.3715 68.0252 49.7979 68.4523 50.3207 68.4523C50.8436 68.4523 51.2702 68.0252 51.2702 67.5018C51.2702 66.9783 50.8436 66.5515 50.3207 66.5515ZM65.5109 70.3534C63.9404 70.3534 62.6628 69.0743 62.6628 67.502C62.6628 65.9297 63.9404 64.6508 65.5109 64.6508C67.0814 64.6508 68.3588 65.9297 68.3588 67.502C68.3588 69.0743 67.0816 70.3534 65.5109 70.3534ZM65.5109 66.5515C64.988 66.5515 64.5614 66.9783 64.5614 67.5018C64.5614 68.0252 64.988 68.4523 65.5109 68.4523C66.0338 68.4523 66.4601 68.0252 66.4601 67.5018C66.4601 66.9783 66.0338 66.5515 65.5109 66.5515ZM57.9157 51.3439C57.791 51.344 57.6676 51.3194 57.5524 51.2717C57.4372 51.224 57.3325 51.154 57.2443 51.0657C57.1562 50.9775 57.0863 50.8727 57.0386 50.7573C56.9909 50.642 56.9664 50.5184 56.9665 50.3936V46.5917C56.9665 46.0661 57.3909 45.6411 57.9157 45.6411C58.4404 45.6411 58.8651 46.0661 58.8651 46.5917V50.3936C58.8652 50.5184 58.8406 50.642 58.7929 50.7574C58.7452 50.8727 58.6753 50.9775 58.5871 51.0657C58.4989 51.154 58.3943 51.224 58.279 51.2717C58.1638 51.3194 58.0404 51.344 57.9157 51.3439ZM42.7257 45.6411C42.601 45.6413 42.4775 45.6168 42.3624 45.5689C42.2472 45.5211 42.1426 45.451 42.0546 45.3625C41.9664 45.2743 41.8964 45.1696 41.8486 45.0543C41.8009 44.939 41.7763 44.8154 41.7763 44.6906C41.7763 44.5658 41.8009 44.4422 41.8486 44.3269C41.8964 44.2116 41.9664 44.1068 42.0546 44.0186L43.9533 42.1178C44.3243 41.7464 44.9248 41.7464 45.2956 42.1178C45.6663 42.4892 45.6666 43.0907 45.2956 43.4619L43.3969 45.3625C43.3089 45.451 43.2043 45.5212 43.0891 45.569C42.974 45.6168 42.8504 45.6413 42.7257 45.6411ZM42.7257 51.3439C42.6011 51.3441 42.4776 51.3196 42.3624 51.2718C42.2472 51.224 42.1426 51.1539 42.0546 51.0655C41.9664 50.9773 41.8964 50.8726 41.8486 50.7573C41.8009 50.642 41.7763 50.5184 41.7763 50.3936C41.7763 50.2688 41.8009 50.1452 41.8486 50.0299C41.8964 49.9146 41.9664 49.8099 42.0546 49.7217L49.6496 42.1178C50.0205 41.7464 50.6211 41.7464 50.9919 42.1178C51.3626 42.4892 51.3629 43.0907 50.9919 43.4619L43.3969 51.0655C43.3089 51.154 43.2043 51.2241 43.0891 51.2719C42.9739 51.3196 42.8504 51.3441 42.7257 51.3439Z" fill="#141414"/>
<path d="M38.9246 39.9196H0.949459C0.824768 39.9197 0.701284 39.8952 0.586064 39.8475C0.470843 39.7997 0.366143 39.7297 0.277962 39.6415C0.189781 39.5532 0.119843 39.4484 0.0721475 39.3331C0.0244518 39.2178 -6.23866e-05 39.0941 1.19231e-07 38.9693V0.950554C-6.2357e-05 0.825709 0.0244509 0.70207 0.0721437 0.586716C0.119836 0.471362 0.189772 0.366546 0.27795 0.278267C0.366128 0.189988 0.470822 0.119982 0.586044 0.0722352C0.701267 0.024488 0.824757 -6.24284e-05 0.949459 1.19215e-07H38.9246C39.0493 -6.24284e-05 39.1728 0.024488 39.288 0.0722352C39.4032 0.119982 39.5079 0.189988 39.5961 0.278267C39.6843 0.366546 39.7542 0.471362 39.8019 0.586716C39.8496 0.70207 39.8741 0.825709 39.874 0.950554V38.9693C39.8741 39.0941 39.8496 39.2178 39.8019 39.3331C39.7542 39.4484 39.6842 39.5532 39.5961 39.6415C39.5079 39.7297 39.4032 39.7997 39.288 39.8475C39.1728 39.8952 39.0493 39.9197 38.9246 39.9196ZM1.89869 38.0187H37.9753V1.90109H1.89869V38.0187Z" fill="#141414"/>
<path d="M19.9367 32.3161C19.812 32.3162 19.6885 32.2916 19.5733 32.2439C19.4581 32.1961 19.3534 32.1261 19.2653 32.0378C19.1771 31.9495 19.1072 31.8447 19.0595 31.7294C19.0119 31.614 18.9874 31.4904 18.9875 31.3655C18.9875 31.0612 19.0321 23.8899 22.9816 21.2151C24.8004 19.9788 27.0906 19.9007 29.783 20.9793C30.2707 21.1741 30.5062 21.7276 30.3116 22.2137C30.1169 22.6998 29.5641 22.9377 29.0786 22.7428C27.0131 21.9186 25.3202 21.9296 24.048 22.7876C20.933 24.8945 20.8864 31.3027 20.8864 31.3658C20.886 31.6178 20.7858 31.8594 20.6078 32.0375C20.4297 32.2157 20.1884 32.3158 19.9367 32.3161Z" fill="#141414"/>
<path d="M19.9368 32.3162C19.6851 32.316 19.4437 32.2158 19.2657 32.0376C19.0877 31.8594 18.9877 31.6177 18.9876 31.3657C18.9876 31.3026 18.9412 24.8946 15.8259 22.7874C14.5556 21.9297 12.8628 21.9187 10.7953 22.7427C10.3115 22.9376 9.757 22.6999 9.56236 22.2135C9.36771 21.7272 9.60323 21.174 10.0909 20.9791C12.7834 19.9006 15.0752 19.9805 16.8923 21.2149C20.8418 23.8898 20.8865 31.0611 20.8865 31.3654C20.8865 31.4903 20.862 31.614 20.8143 31.7293C20.7665 31.8447 20.6966 31.9495 20.6084 32.0378C20.5202 32.1261 20.4155 32.1961 20.3003 32.2439C20.185 32.2917 20.0615 32.3162 19.9368 32.3162ZM19.9368 20.9104C19.6855 20.91 19.4446 20.81 19.2667 20.6323C19.0888 20.4546 18.9884 20.2136 18.9876 19.962C18.9838 19.0076 18.6724 16.3104 17.2816 15.3097C16.6031 14.8197 15.7055 14.7679 14.5409 15.1595C14.0478 15.3263 13.5061 15.0553 13.3393 14.558C13.2603 14.3187 13.2791 14.0578 13.3917 13.8324C13.5043 13.6069 13.7015 13.4353 13.9401 13.355C15.7035 12.7664 17.2018 12.9075 18.3939 13.7709C20.8582 15.5473 20.886 19.7799 20.886 19.9601C20.8856 20.2117 20.7857 20.4529 20.6082 20.631C20.4306 20.8091 20.1898 20.9096 19.9385 20.9104H19.9368Z" fill="#141414"/>
<path d="M19.9367 20.9102C19.812 20.9103 19.6886 20.8858 19.5733 20.8381C19.4581 20.7903 19.3535 20.7204 19.2653 20.6321C19.1771 20.5438 19.1072 20.439 19.0596 20.3237C19.0119 20.2084 18.9874 20.0847 18.9875 19.9599C18.9875 19.7798 19.0153 15.5472 21.4794 13.7708C22.6701 12.9054 24.17 12.7662 25.9334 13.3549C26.1721 13.435 26.3694 13.6067 26.4819 13.8321C26.5945 14.0576 26.6132 14.3186 26.534 14.5579C26.4948 14.6765 26.4326 14.7863 26.351 14.8808C26.2693 14.9753 26.1698 15.0527 26.0582 15.1086C25.9465 15.1645 25.825 15.1978 25.7004 15.2065C25.5759 15.2152 25.4509 15.1992 25.3326 15.1594C24.1697 14.7677 23.2704 14.8215 22.5881 15.3114C21.1918 16.3195 20.8859 19.0094 20.8859 19.9599C20.8861 20.0847 20.8616 20.2084 20.8139 20.3237C20.7663 20.4391 20.6964 20.5439 20.6082 20.6322C20.52 20.7204 20.4153 20.7904 20.3001 20.8381C20.1849 20.8859 20.0614 20.9103 19.9367 20.9102ZM12.3417 32.3161C10.7713 32.3161 9.4936 31.0369 9.4936 29.4647C9.4936 27.8924 10.7713 26.6135 12.3417 26.6135C13.9122 26.6135 15.1899 27.8924 15.1899 29.4647C15.1899 31.0369 13.9124 32.3161 12.3417 32.3161ZM12.3417 28.5141C11.8189 28.5141 11.3925 28.941 11.3925 29.4644C11.3925 29.9879 11.8189 30.415 12.3417 30.415C12.8646 30.415 13.2912 29.9879 13.2912 29.4644C13.2912 28.941 12.8646 28.5141 12.3417 28.5141ZM27.5319 32.3161C25.9614 32.3161 24.6838 31.0369 24.6838 29.4647C24.6838 27.8924 25.9614 26.6135 27.5319 26.6135C29.1024 26.6135 30.3798 27.8924 30.3798 29.4647C30.3798 31.0369 29.1026 32.3161 27.5319 32.3161ZM27.5319 28.5141C27.0091 28.5141 26.5825 28.941 26.5825 29.4644C26.5825 29.9879 27.0091 30.415 27.5319 30.415C28.0548 30.415 28.4811 29.9879 28.4811 29.4644C28.4811 28.941 28.0548 28.5141 27.5319 28.5141ZM19.9367 13.3066C19.812 13.3066 19.6886 13.2821 19.5734 13.2344C19.4582 13.1866 19.3535 13.1166 19.2654 13.0284C19.1772 12.9401 19.1073 12.8353 19.0596 12.72C19.0119 12.6047 18.9874 12.4811 18.9875 12.3563V8.55431C18.9875 8.02872 19.412 7.60376 19.9367 7.60376C20.4615 7.60376 20.8862 8.02872 20.8862 8.55431V12.3563C20.8862 12.4811 20.8617 12.6047 20.814 12.72C20.7663 12.8353 20.6963 12.9401 20.6081 13.0284C20.52 13.1166 20.4153 13.1866 20.3001 13.2344C20.1849 13.2821 20.0614 13.3066 19.9367 13.3066ZM4.74677 7.60376C4.62207 7.60393 4.49857 7.5794 4.38338 7.53158C4.2682 7.48376 4.1636 7.4136 4.07561 7.32515C3.98739 7.23695 3.91741 7.13221 3.86966 7.01691C3.82191 6.90162 3.79733 6.77803 3.79733 6.65322C3.79733 6.52841 3.82191 6.40482 3.86966 6.28953C3.91741 6.17423 3.98739 6.06949 4.07561 5.98129L5.97429 4.08044C6.34528 3.70903 6.94586 3.70903 7.31661 4.08044C7.68736 4.45186 7.6876 5.05335 7.31661 5.42453L5.41792 7.32515C5.32996 7.41365 5.22537 7.48383 5.11018 7.53165C4.99498 7.57947 4.87147 7.60398 4.74677 7.60376ZM4.74677 13.3066C4.62209 13.3067 4.49861 13.2822 4.38343 13.2344C4.26825 13.1867 4.16364 13.1166 4.07561 13.0282C3.98739 12.94 3.91741 12.8352 3.86966 12.72C3.82191 12.6047 3.79733 12.4811 3.79733 12.3563C3.79733 12.2314 3.82191 12.1079 3.86966 11.9926C3.91741 11.8773 3.98739 11.7725 4.07561 11.6843L11.6706 4.08044C12.0416 3.70903 12.6421 3.70903 13.0129 4.08044C13.3837 4.45186 13.3839 5.05335 13.0129 5.42453L5.41792 13.0282C5.32992 13.1166 5.22531 13.1867 5.11013 13.2345C4.99494 13.2823 4.87145 13.3068 4.74677 13.3066Z" fill="#141414"/>
</svg>
