<svg width="75" height="76" viewBox="0 0 75 76" fill="none" xmlns="http://www.w3.org/2000/svg">
<path d="M74.4128 11.1116C74.3993 11.1049 74.3686 11.0696 74.3184 11.0201L74.3289 11.0171C74.3049 10.9946 74.2787 10.9721 74.2525 10.9466C73.6365 10.2878 72.9443 9.70508 72.1903 9.21066C72.2621 9.00891 72.303 8.79748 72.3117 8.58351C72.2668 7.51526 71.6096 7.0299 71.2042 6.8176C70.9844 6.07201 70.7035 5.34587 70.3642 4.64659C69.4366 2.66838 67.1954 0.055513 63.5627 0.0217551C63.3937 0.00765191 63.2242 0.000394278 63.0546 0C61.9868 0.00825194 59.7037 0.178542 57.5037 1.87019C55.2804 3.56334 53.6334 6.77409 53.6694 11.4349L53.7031 11.837C53.7031 11.837 53.7496 12.1198 53.805 12.6997C53.8575 13.2924 53.9159 14.1378 53.9159 15.1288C53.9174 17.1183 53.6709 19.6921 52.8466 21.8871C51.9939 24.1039 50.7208 25.8473 48.5058 26.8638L48.3882 26.9231C48.2923 27.0026 38.3555 32.0663 32.8735 37.256C30.6997 38.0587 22.8866 41.1292 17.4285 47.0263C15.3837 47.939 13.36 48.8984 11.359 49.904C7.826 51.7104 4.01346 53.7231 1.84043 55.8401L1.61938 56.0937C1.32115 56.456 1.02442 57.1334 1.03716 57.8011C1.12108 58.9413 1.5452 59.5235 1.9251 59.8745C1.86498 59.9391 1.80821 60.0067 1.75501 60.0771C1.44029 60.4672 1.13457 60.843 0.856575 61.2166C0.717201 61.4064 0.583822 61.5879 0.438454 61.84C0.317814 62.1303 0.0630449 62.3171 0.000851321 63.3546C-0.0148844 63.828 0.184435 64.6959 0.856575 65.2998C1.34648 65.7407 1.98195 65.9847 2.64071 65.9847L3.18996 65.9232C9.37185 64.5429 18.1494 63.2931 25.3316 62.4034C29.1375 61.9313 32.9483 61.4992 36.7632 61.1071C37.6864 62.2571 39.1476 64.026 40.1389 64.9307C40.4169 65.1828 40.7451 65.3343 41.0838 65.4416L42.9961 70.2187C41.693 70.2187 40.7069 70.2187 40.7047 70.2127C40.4819 70.2125 40.2613 70.2563 40.0554 70.3416C39.8496 70.4269 39.6626 70.5521 39.5052 70.7098C39.3477 70.8676 39.2229 71.0549 39.1379 71.2611C39.0529 71.4672 39.0093 71.6881 39.0097 71.9111C39.0094 72.1339 39.0531 72.3546 39.1382 72.5605C39.2233 72.7664 39.3481 72.9534 39.5056 73.1109C39.6631 73.2683 39.8501 73.3931 40.0558 73.478C40.2616 73.563 40.4821 73.6064 40.7047 73.6058H49.1607C49.5107 73.6058 49.7415 73.6058 49.8291 73.62H49.8396C49.94 73.6905 50.2592 73.9891 50.7845 74.518C50.941 74.6766 51.1274 74.8024 51.3329 74.8884C51.5384 74.9743 51.7589 75.0185 51.9815 75.0185C52.2042 75.0185 52.4247 74.9743 52.6302 74.8884C52.8357 74.8024 53.0221 74.6766 53.1786 74.518C53.4943 74.2003 53.6716 73.7704 53.6716 73.3222C53.6716 72.874 53.4943 72.4441 53.1786 72.1264C52.4667 71.437 52.1011 70.9862 51.3285 70.5728C50.5912 70.2195 49.9812 70.2195 49.3953 70.2195H46.5643C46.5449 70.1069 46.5464 69.9862 46.4999 69.8699L44.1523 63.993C44.2737 63.6944 44.3613 63.3764 44.3613 63.0395C44.3726 61.7117 45.0964 60.7087 47.444 59.3134C50.8744 57.3074 56.7985 55.7261 62.0311 53.0982C67.1999 50.5641 72.2817 46.1883 72.2368 38.8599C72.1911 34.7339 70.3448 31.5209 68.8356 27.7588C67.3063 24.0274 65.8676 19.7184 65.8219 13.4079C65.8983 12.6525 66.1178 12.3096 66.3194 12.1063C66.5704 11.8723 67.0148 11.69 67.7191 11.6885C69.1009 11.6487 71.154 12.5714 71.9296 13.4079C72.574 14.053 73.6065 14.0778 74.2787 13.4552C74.5984 13.1571 74.7908 12.747 74.8158 12.3103C74.8408 11.8737 74.6964 11.4443 74.4128 11.1116ZM64.267 3.36829C64.7076 3.36829 65.0673 3.72912 65.0673 4.17623C65.0673 4.62108 64.7076 4.98567 64.267 4.98567C64.0528 4.98567 63.8473 4.90047 63.6958 4.74881C63.5444 4.59715 63.4593 4.39146 63.4593 4.17698C63.4593 3.9625 63.5444 3.75681 63.6958 3.60515C63.8473 3.45349 64.0528 3.36829 64.267 3.36829ZM68.3598 30.9283C68.4476 31.0699 68.5066 31.2274 68.5336 31.3918C68.5605 31.5563 68.5548 31.7244 68.5168 31.8867C68.4788 32.049 68.4093 32.2021 68.3121 32.3375C68.215 32.4728 68.0922 32.5876 67.9507 32.6754C67.7446 32.8037 67.5093 32.863 67.283 32.863C67.0677 32.864 66.8558 32.81 66.6672 32.7061C66.4786 32.6021 66.3197 32.4516 66.2055 32.2688C63.8159 28.4579 60.2687 27.8675 58.0342 27.8458C56.9327 27.8458 56.2838 28.0003 56.2838 28.0003H56.2823C55.9531 28.0737 55.6083 28.0135 55.3234 27.8328C55.0386 27.6521 54.8369 27.3657 54.7626 27.0363C54.6902 26.7074 54.7503 26.3632 54.9299 26.0783C55.1095 25.7935 55.394 25.5911 55.7218 25.515C55.79 25.503 56.6869 25.3087 58.0342 25.3087C60.6838 25.2869 65.3715 26.1301 68.3598 30.9283Z" fill="#060606"/>
</svg>
