<svg width="122" height="116" viewBox="0 0 122 116" fill="none" xmlns="http://www.w3.org/2000/svg">
<path d="M92.8131 40.306C89.3884 40.306 85.9746 38.912 83.438 36.3723C78.5947 31.5234 74.404 11.6433 74.2279 10.8006C74.1954 10.646 74.2019 10.4858 74.2469 10.3344C74.2919 10.1829 74.3739 10.0452 74.4855 9.93355C74.5973 9.82213 74.7349 9.74023 74.886 9.69522C75.0372 9.6502 75.1972 9.64347 75.3516 9.67563C76.1934 9.85194 96.047 14.0512 100.89 18.8963C104.144 22.1541 105.52 26.8675 104.48 31.1929C104.356 31.7016 103.85 32.006 103.334 31.8946C103.089 31.8355 102.878 31.6814 102.747 31.4663C102.615 31.2512 102.574 30.9927 102.633 30.7475C103.521 27.0607 102.339 23.0342 99.548 20.2404C95.806 16.4962 81.0925 12.9189 76.4049 11.8551C77.4675 16.5481 81.0388 31.2822 84.7806 35.0284C87.5731 37.8242 91.5932 39.0029 95.2757 38.1137C95.791 37.9988 96.2994 38.3069 96.4215 38.8154C96.5437 39.3239 96.2304 39.8383 95.7206 39.9627C94.7685 40.1921 93.7924 40.3074 92.8131 40.306Z" fill="#141414"/>
<path d="M106.038 39.7842C105.913 39.7843 105.79 39.7598 105.674 39.712C105.559 39.6641 105.455 39.594 105.367 39.5056L95.9655 30.0974C95.5945 29.7262 95.5945 29.1247 95.9655 28.7536C96.3364 28.3824 96.937 28.3822 97.3078 28.7536L106.709 38.1617C106.797 38.2499 106.867 38.3546 106.915 38.4699C106.963 38.5852 106.987 38.7088 106.987 38.8336C106.987 38.9585 106.963 39.082 106.915 39.1973C106.867 39.3126 106.797 39.4174 106.709 39.5056C106.621 39.594 106.516 39.6641 106.401 39.712C106.286 39.7598 106.163 39.7843 106.038 39.7842ZM103.349 42.4721C103.224 42.4723 103.101 42.4478 102.986 42.4C102.87 42.3522 102.766 42.2821 102.678 42.1937L93.2803 32.7856C92.9094 32.4142 92.9094 31.8129 93.2803 31.4417C93.6513 31.0706 94.2521 31.0703 94.6227 31.4417L104.02 40.8499C104.108 40.9381 104.178 41.0428 104.226 41.1581C104.274 41.2734 104.298 41.397 104.298 41.5218C104.298 41.6466 104.274 41.7702 104.226 41.8855C104.178 42.0008 104.108 42.1055 104.02 42.1937C103.932 42.2821 103.827 42.3522 103.712 42.4C103.597 42.4478 103.474 42.4723 103.349 42.4721Z" fill="#141414"/>
<path d="M102.007 43.8165C101.882 43.8166 101.758 43.792 101.643 43.7442C101.528 43.6964 101.423 43.6263 101.335 43.5378C101.247 43.4496 101.177 43.3449 101.129 43.2296C101.082 43.1143 101.057 42.9907 101.057 42.8659C101.057 42.7411 101.082 42.6175 101.129 42.5022C101.177 42.3869 101.247 42.2822 101.335 42.194L106.709 36.8179C107.08 36.4465 107.681 36.4465 108.051 36.8179C108.422 37.1893 108.422 37.7905 108.051 38.1617L102.678 43.5378C102.59 43.6263 102.485 43.6964 102.37 43.7442C102.255 43.792 102.131 43.8166 102.007 43.8165Z" fill="#141414"/>
<path d="M119.462 50.5363C119.338 50.5365 119.214 50.5119 119.099 50.4642C118.984 50.4164 118.879 50.3463 118.791 50.2579L106.709 38.1616C106.338 37.7902 106.338 37.189 106.709 36.8178C107.08 36.4466 107.681 36.4464 108.051 36.8178L120.134 48.9139C120.266 49.0467 120.357 49.2161 120.394 49.4005C120.43 49.5849 120.412 49.7761 120.34 49.9498C120.268 50.1235 120.146 50.272 119.99 50.3764C119.834 50.4808 119.65 50.5365 119.462 50.5363ZM114.092 55.9122C113.968 55.9123 113.844 55.8878 113.729 55.84C113.614 55.7923 113.509 55.7222 113.421 55.6338L101.335 43.5375C101.247 43.4493 101.177 43.3446 101.129 43.2293C101.081 43.114 101.057 42.9904 101.057 42.8656C101.057 42.7408 101.081 42.6172 101.129 42.5019C101.177 42.3866 101.247 42.2819 101.335 42.1937C101.423 42.1053 101.528 42.0353 101.643 41.9875C101.758 41.9397 101.882 41.9151 102.006 41.9151C102.131 41.9151 102.254 41.9397 102.37 41.9875C102.485 42.0353 102.589 42.1053 102.677 42.1937L114.764 54.2897C114.896 54.4226 114.987 54.592 115.023 54.7763C115.06 54.9607 115.041 55.1518 114.97 55.3255C114.898 55.4992 114.776 55.6476 114.62 55.7521C114.464 55.8565 114.28 55.9122 114.092 55.9122Z" fill="#141414"/>
<path d="M116.778 57.0282C116.154 57.0299 115.536 56.9075 114.96 56.6682C114.384 56.4289 113.861 56.0774 113.421 55.6342C113.05 55.2611 113.05 54.6594 113.421 54.2901C113.509 54.2018 113.614 54.1318 113.729 54.084C113.844 54.0363 113.968 54.0117 114.093 54.0117C114.217 54.0117 114.341 54.0363 114.456 54.084C114.571 54.1318 114.676 54.2018 114.764 54.2901C115.843 55.3706 117.712 55.3706 118.791 54.2901C119.9 53.1801 119.9 51.3702 118.791 50.2583C118.42 49.8852 118.42 49.2835 118.791 48.9142C118.879 48.8259 118.984 48.7558 119.099 48.708C119.214 48.6602 119.338 48.6356 119.462 48.6356C119.587 48.6356 119.71 48.6602 119.825 48.708C119.941 48.7558 120.045 48.8259 120.133 48.9142C121.982 50.7689 121.982 53.7835 120.133 55.6344C119.694 56.0776 119.171 56.429 118.595 56.6683C118.019 56.9075 117.401 57.0299 116.778 57.0282ZM93.9515 33.064C93.8268 33.0642 93.7034 33.0397 93.5882 32.9919C93.473 32.9441 93.3684 32.874 93.2803 32.7856C92.1698 31.6735 92.1698 29.8657 93.2803 28.7536C94.3893 27.6437 96.1988 27.6437 97.3078 28.7536C97.396 28.8418 97.466 28.9465 97.5137 29.0618C97.5615 29.1771 97.586 29.3007 97.586 29.4255C97.586 29.5504 97.5615 29.6739 97.5137 29.7892C97.466 29.9045 97.396 30.0093 97.3078 30.0975C97.2197 30.1858 97.1151 30.2558 96.9999 30.3036C96.8847 30.3515 96.7613 30.3761 96.6366 30.3761C96.5119 30.3761 96.3885 30.3515 96.2733 30.3036C96.1582 30.2558 96.0535 30.1858 95.9654 30.0975C95.7874 29.9192 95.546 29.8191 95.2942 29.8191C95.0424 29.8191 94.8009 29.9192 94.6229 30.0975C94.4449 30.2757 94.3448 30.5174 94.3448 30.7695C94.3448 31.0216 94.4449 31.2633 94.6229 31.4416C94.7111 31.5297 94.7811 31.6345 94.8288 31.7498C94.8766 31.8651 94.9012 31.9887 94.9012 32.1135C94.9012 32.2383 94.8766 32.3619 94.8288 32.4772C94.7811 32.5925 94.7111 32.6972 94.6229 32.7854C94.5349 32.8739 94.4302 32.944 94.315 32.9918C94.1998 33.0397 94.0762 33.0642 93.9515 33.064ZM38.9284 115.957H0.953062C0.828371 115.957 0.704884 115.933 0.589663 115.885C0.474442 115.837 0.369748 115.767 0.281567 115.679C0.193386 115.591 0.123448 115.486 0.0757519 115.371C0.0280563 115.255 0.00353869 115.132 0.00360119 115.007V76.988C0.00353872 76.8632 0.0280546 76.7396 0.0757473 76.6242C0.12344 76.5089 0.193374 76.404 0.281552 76.3158C0.369731 76.2275 0.474423 76.1575 0.589645 76.1097C0.704867 76.062 0.828359 76.0374 0.953062 76.0375H38.9284C39.0531 76.0374 39.1766 76.062 39.2918 76.1097C39.407 76.1575 39.5117 76.2275 39.5998 76.3158C39.688 76.4041 39.7579 76.5089 39.8056 76.6242C39.8532 76.7396 39.8777 76.8632 39.8776 76.988V115.007C39.8777 115.132 39.8532 115.255 39.8056 115.371C39.7579 115.486 39.688 115.591 39.5998 115.679C39.5117 115.767 39.407 115.837 39.2918 115.885C39.1766 115.933 39.0531 115.957 38.9284 115.957ZM1.90252 114.056H37.9789V77.9386H1.90252V114.056Z" fill="#141414"/>
<path d="M4.75046 83.6413C4.62576 83.6414 4.50227 83.6168 4.38709 83.569C4.27191 83.5212 4.1673 83.4511 4.0793 83.3626C3.99108 83.2744 3.9211 83.1697 3.87335 83.0544C3.8256 82.9391 3.80103 82.8155 3.80103 82.6907C3.80103 82.5659 3.8256 82.4423 3.87335 82.327C3.9211 82.2117 3.99108 82.107 4.0793 82.0188L5.97798 80.1179C6.06608 80.0296 6.1707 79.9596 6.28586 79.9117C6.40102 79.8639 6.52447 79.8393 6.64914 79.8393C6.77381 79.8393 6.89726 79.8639 7.01242 79.9117C7.12758 79.9596 7.2322 80.0296 7.3203 80.1179C7.40849 80.2062 7.47846 80.3109 7.52619 80.4262C7.57392 80.5416 7.59849 80.6651 7.59849 80.79C7.59849 80.9148 7.57392 81.0384 7.52619 81.1537C7.47846 81.269 7.40849 81.3738 7.3203 81.462L5.42162 83.3626C5.33367 83.4512 5.22908 83.5214 5.11388 83.5692C4.99869 83.617 4.87517 83.6415 4.75046 83.6413ZM4.75046 89.3441C4.62579 89.3442 4.50232 89.3197 4.38714 89.2719C4.27196 89.2241 4.16735 89.154 4.0793 89.0657C3.99108 88.9775 3.9211 88.8727 3.87335 88.7574C3.8256 88.6421 3.80103 88.5186 3.80103 88.3937C3.80103 88.2689 3.8256 88.1453 3.87335 88.0301C3.9211 87.9148 3.99108 87.81 4.0793 87.7218L11.6743 80.1179C12.0453 79.7465 12.6461 79.7465 13.0168 80.1179C13.3876 80.4893 13.3878 81.0908 13.0168 81.462L5.42162 89.0657C5.33363 89.1541 5.22902 89.2243 5.11383 89.272C4.99864 89.3198 4.87514 89.3443 4.75046 89.3441ZM114.879 115.957H76.9035C76.7789 115.957 76.6554 115.933 76.5402 115.885C76.425 115.837 76.3203 115.767 76.2321 115.679C76.144 115.591 76.0741 115.486 76.0264 115.371C75.9787 115.255 75.9542 115.132 75.9543 115.007V76.9881C75.9542 76.8633 75.9787 76.7397 76.0264 76.6243C76.0741 76.509 76.144 76.4042 76.2321 76.3159C76.3203 76.2276 76.425 76.1576 76.5402 76.1098C76.6554 76.0621 76.7789 76.0375 76.9035 76.0376H114.879C115.004 76.0375 115.127 76.0621 115.242 76.1098C115.357 76.1576 115.462 76.2276 115.55 76.3159C115.638 76.4042 115.708 76.509 115.756 76.6243C115.804 76.7397 115.828 76.8633 115.828 76.9881V115.007C115.828 115.132 115.804 115.255 115.756 115.371C115.708 115.486 115.638 115.591 115.55 115.679C115.462 115.767 115.357 115.837 115.242 115.885C115.127 115.933 115.004 115.957 114.879 115.957ZM77.853 114.056H113.929V77.9387H77.853V114.056Z" fill="#141414"/>
<path d="M80.7011 83.6412C80.5132 83.6414 80.3296 83.5858 80.1733 83.4814C80.0171 83.377 79.8953 83.2285 79.8234 83.0548C79.7515 82.881 79.7327 82.6898 79.7694 82.5054C79.8062 82.321 79.8967 82.1516 80.0297 82.0187L81.9284 80.1179C82.0165 80.0296 82.1211 79.9595 82.2362 79.9117C82.3514 79.8639 82.4749 79.8393 82.5995 79.8393C82.7242 79.8393 82.8476 79.8639 82.9628 79.9117C83.078 79.9595 83.1826 80.0296 83.2707 80.1179C83.3589 80.2061 83.4288 80.3109 83.4766 80.4262C83.5243 80.5415 83.5489 80.6651 83.5489 80.7899C83.5489 80.9147 83.5243 81.0383 83.4766 81.1536C83.4288 81.269 83.3589 81.3737 83.2707 81.462L81.3722 83.3626C81.2843 83.4511 81.1797 83.5212 81.0645 83.569C80.9493 83.6169 80.8258 83.6414 80.7011 83.6412ZM80.7011 89.344C80.5133 89.3441 80.3297 89.2885 80.1735 89.1841C80.0173 89.0797 79.8955 88.9313 79.8237 88.7576C79.7518 88.5839 79.733 88.3928 79.7696 88.2084C79.8063 88.024 79.8968 87.8546 80.0297 87.7218L87.6249 80.1179C87.9959 79.7465 88.5965 79.7465 88.9672 80.1179C89.338 80.4893 89.3382 81.0908 88.9672 81.462L81.3722 89.0656C81.2842 89.154 81.1796 89.2241 81.0644 89.2719C80.9492 89.3197 80.8258 89.3442 80.7011 89.344ZM76.9035 77.9386H38.9284C38.8037 77.9387 38.6802 77.9142 38.565 77.8664C38.4497 77.8187 38.345 77.7486 38.2569 77.6604C38.1687 77.5721 38.0987 77.4673 38.0511 77.3519C38.0034 77.2366 37.9788 77.1129 37.9789 76.9881V38.9691C37.9788 38.8443 38.0034 38.7207 38.0511 38.6053C38.0988 38.49 38.1687 38.3852 38.2569 38.2969C38.3451 38.2087 38.4498 38.1387 38.565 38.0909C38.6802 38.0432 38.8037 38.0187 38.9284 38.0188H76.9035C77.0282 38.0187 77.1517 38.0432 77.2669 38.0909C77.3821 38.1387 77.4868 38.2087 77.575 38.2969C77.6632 38.3852 77.7331 38.49 77.7808 38.6053C77.8285 38.7207 77.853 38.8443 77.8529 38.9691V76.9879C77.853 77.1127 77.8285 77.2364 77.7809 77.3517C77.7332 77.4671 77.6633 77.572 77.5751 77.6603C77.4869 77.7486 77.3822 77.8186 77.2669 77.8664C77.1517 77.9141 77.0282 77.9387 76.9035 77.9386ZM39.8776 76.0373H75.9543V39.9199H39.8776V76.0373Z" fill="#141414"/>
<path d="M42.7257 45.6224C42.6011 45.6226 42.4776 45.598 42.3624 45.5503C42.2472 45.5025 42.1426 45.4324 42.0546 45.344C41.9664 45.2558 41.8964 45.1511 41.8486 45.0358C41.8009 44.9205 41.7763 44.7969 41.7763 44.6721C41.7763 44.5473 41.8009 44.4237 41.8486 44.3084C41.8964 44.1931 41.9664 44.0884 42.0546 44.0002L43.9533 42.0991C44.0414 42.0108 44.146 41.9408 44.2612 41.893C44.3763 41.8453 44.4998 41.8207 44.6244 41.8207C44.7491 41.8207 44.8725 41.8453 44.9877 41.893C45.1028 41.9408 45.2075 42.0108 45.2956 42.0991C45.3838 42.1873 45.4537 42.2921 45.5015 42.4074C45.5492 42.5227 45.5738 42.6463 45.5738 42.7711C45.5738 42.8959 45.5492 43.0195 45.5015 43.1349C45.4537 43.2502 45.3838 43.3549 45.2956 43.4432L43.3969 45.344C43.3089 45.4324 43.2043 45.5026 43.0891 45.5503C42.9739 45.5981 42.8504 45.6226 42.7257 45.6224ZM42.7257 51.3252C42.6011 51.3254 42.4776 51.3008 42.3624 51.2531C42.2472 51.2053 42.1426 51.1352 42.0546 51.0468C41.9664 50.9586 41.8964 50.8539 41.8486 50.7386C41.8009 50.6233 41.7763 50.4997 41.7763 50.3749C41.7763 50.2501 41.8009 50.1265 41.8486 50.0112C41.8964 49.8959 41.9664 49.7912 42.0546 49.703L49.6496 42.0991C49.7377 42.0108 49.8423 41.9408 49.9575 41.893C50.0726 41.8453 50.1961 41.8207 50.3207 41.8207C50.4454 41.8207 50.5688 41.8453 50.6839 41.893C50.7991 41.9408 50.9037 42.0108 50.9919 42.0991C51.0801 42.1873 51.15 42.2921 51.1978 42.4074C51.2455 42.5227 51.2701 42.6463 51.2701 42.7711C51.2701 42.8959 51.2455 43.0195 51.1978 43.1349C51.15 43.2502 51.0801 43.3549 50.9919 43.4432L43.3969 51.0468C43.3089 51.1352 43.2042 51.2053 43.0891 51.2531C42.9739 51.3008 42.8504 51.3254 42.7257 51.3252ZM38.9246 39.9198H0.949223C0.824532 39.9199 0.701051 39.8954 0.585842 39.8476C0.470634 39.7999 0.365957 39.7298 0.277798 39.6416C0.189639 39.5533 0.119727 39.4485 0.07206 39.3331C0.0243932 39.2178 -9.34536e-05 39.0941 2.6802e-07 38.9693V0.950546C-9.34536e-05 0.825712 0.0243932 0.702084 0.07206 0.586732C0.119727 0.471379 0.189639 0.366565 0.277798 0.278283C0.365957 0.190001 0.470634 0.119983 0.585842 0.0722333C0.701051 0.0244831 0.824532 -6.24579e-05 0.949223 1.19351e-07H38.9246C39.0493 -6.24579e-05 39.1727 0.0244831 39.2879 0.0722333C39.4032 0.119983 39.5078 0.190001 39.596 0.278283C39.6842 0.366565 39.7541 0.471379 39.8017 0.586732C39.8494 0.702084 39.8739 0.825712 39.8738 0.950546V38.9691C39.8739 39.0939 39.8494 39.2175 39.8017 39.3329C39.7541 39.4483 39.6842 39.5531 39.596 39.6414C39.5078 39.7297 39.4032 39.7997 39.288 39.8475C39.1728 39.8953 39.0493 39.9199 38.9246 39.9198ZM1.89868 38.0187H37.9751V1.90085H1.89868V38.0187Z" fill="#141414"/>
<path d="M4.74665 7.6038C4.62196 7.60388 4.49849 7.57931 4.38331 7.5315C4.26813 7.48369 4.16353 7.41357 4.07549 7.32518C3.98727 7.23698 3.91729 7.13224 3.86954 7.01694C3.82179 6.90165 3.79722 6.77806 3.79722 6.65325C3.79722 6.52844 3.82179 6.40485 3.86954 6.28955C3.91729 6.17426 3.98727 6.06952 4.07549 5.98132L5.97417 4.08047C6.06227 3.99215 6.16689 3.92209 6.28205 3.87429C6.39721 3.82649 6.52066 3.80188 6.64533 3.80188C6.77 3.80188 6.89345 3.82649 7.00861 3.87429C7.12377 3.92209 7.22839 3.99215 7.31649 4.08047C7.4047 4.16867 7.47469 4.27341 7.52244 4.3887C7.57018 4.504 7.59476 4.62758 7.59476 4.7524C7.59476 4.87721 7.57018 5.0008 7.52244 5.11609C7.47469 5.23139 7.4047 5.33613 7.31649 5.42432L5.4178 7.32518C5.32983 7.41366 5.22523 7.48383 5.11004 7.53165C4.99485 7.57947 4.87135 7.60399 4.74665 7.6038ZM4.74665 13.3066C4.55882 13.3067 4.37518 13.2511 4.21897 13.1467C4.06276 13.0422 3.94102 12.8938 3.86915 12.72C3.79728 12.5463 3.77853 12.3551 3.81526 12.1707C3.85199 11.9863 3.94256 11.817 4.07549 11.6841L11.6705 4.08047C12.0415 3.70906 12.6423 3.70906 13.013 4.08047C13.3838 4.45189 13.384 5.05314 13.013 5.42432L5.41804 13.0282C5.32993 13.1166 5.22526 13.1866 5.11005 13.2344C4.99484 13.2822 4.87135 13.3067 4.74665 13.3066ZM76.9035 115.957H38.9284C38.8037 115.957 38.6802 115.933 38.565 115.885C38.4498 115.837 38.3451 115.767 38.2569 115.679C38.1687 115.591 38.0988 115.486 38.0511 115.37C38.0034 115.255 37.9789 115.132 37.979 115.007V76.9879C37.9789 76.8631 38.0034 76.7395 38.0511 76.6241C38.0988 76.5087 38.1687 76.4039 38.2569 76.3157C38.3451 76.2274 38.4498 76.1574 38.565 76.1096C38.6802 76.0619 38.8037 76.0373 38.9284 76.0374H76.9035C77.0282 76.0373 77.1517 76.0619 77.267 76.1096C77.3822 76.1574 77.4869 76.2274 77.575 76.3157C77.6632 76.4039 77.7332 76.5087 77.7809 76.6241C77.8285 76.7395 77.8531 76.8631 77.853 76.9879V115.007C77.8531 115.132 77.8285 115.255 77.7808 115.37C77.7331 115.486 77.6632 115.591 77.575 115.679C77.4868 115.767 77.3822 115.837 77.2669 115.885C77.1517 115.933 77.0282 115.957 76.9035 115.957ZM39.8777 114.056H75.9543V77.9385H39.8777V114.056Z" fill="#141414"/>
<path d="M57.9157 108.353C57.791 108.354 57.6675 108.329 57.5523 108.281C57.4371 108.233 57.3324 108.163 57.2442 108.075C57.1561 107.987 57.0862 107.882 57.0385 107.767C56.9908 107.651 56.9663 107.528 56.9664 107.403C56.9664 107.099 57.0111 99.9273 60.9606 97.2524C62.7794 96.0161 65.0695 95.9381 67.762 97.0166C68.2497 97.2115 68.4852 97.7649 68.2906 98.251C68.0959 98.7371 67.5431 98.975 67.0576 98.7802C64.992 97.956 63.2992 97.9669 62.027 98.8249C58.9119 100.932 58.8654 107.34 58.8654 107.403C58.865 107.655 58.7648 107.897 58.5867 108.075C58.4087 108.253 58.1674 108.353 57.9157 108.353Z" fill="#141414"/>
<path d="M57.9158 108.354C57.664 108.353 57.4227 108.253 57.2447 108.075C57.0667 107.897 56.9667 107.655 56.9665 107.403C56.9665 107.34 56.9202 100.932 53.8049 98.8248C52.5346 97.967 50.8417 97.9561 48.7743 98.7801C48.2904 98.9749 47.736 98.7372 47.5413 98.2509C47.3467 97.7646 47.5822 97.2114 48.0699 97.0165C50.7624 95.9379 53.0541 96.0179 54.8713 97.2523C58.8208 99.9271 58.8655 107.098 58.8655 107.403C58.8655 107.528 58.8409 107.651 58.7932 107.767C58.7455 107.882 58.6756 107.987 58.5874 108.075C58.4992 108.163 58.3945 108.233 58.2792 108.281C58.164 108.329 58.0405 108.354 57.9158 108.354ZM57.9158 96.9477C57.6645 96.9474 57.4235 96.8474 57.2456 96.6697C57.0678 96.4919 56.9674 96.2509 56.9665 95.9993C56.9627 95.045 56.6514 92.3478 55.2606 91.347C54.5821 90.8571 53.6844 90.8052 52.5199 91.1969C52.0267 91.3637 51.4851 91.0927 51.3183 90.5954C51.2392 90.3561 51.2581 90.0952 51.3707 89.8697C51.4833 89.6443 51.6804 89.4727 51.9191 89.3924C53.6825 88.8037 55.1807 88.9448 56.3729 89.8083C58.8372 91.5847 58.865 95.8173 58.865 95.9974C58.8646 96.2491 58.7647 96.4903 58.5871 96.6684C58.4096 96.8465 58.1688 96.9469 57.9174 96.9477H57.9158Z" fill="#141414"/>
<path d="M57.9157 96.9476C57.791 96.9477 57.6676 96.9232 57.5524 96.8755C57.4372 96.8278 57.3325 96.7578 57.2443 96.6695C57.1562 96.5812 57.0862 96.4765 57.0386 96.3611C56.9909 96.2458 56.9664 96.1222 56.9665 95.9973C56.9665 95.8172 56.9943 91.5846 59.4584 89.8082C60.6491 88.9428 62.149 88.8036 63.9124 89.3923C64.1511 89.4725 64.3484 89.6441 64.4609 89.8696C64.5735 90.0951 64.5922 90.356 64.513 90.5953C64.4738 90.7139 64.4117 90.8237 64.33 90.9182C64.2483 91.0127 64.1488 91.0902 64.0372 91.1461C63.9256 91.202 63.804 91.2352 63.6795 91.2439C63.5549 91.2526 63.4299 91.2366 63.3116 91.1968C62.1487 90.8051 61.2494 90.8589 60.5671 91.3488C59.1708 92.3569 58.8649 95.0468 58.8649 95.9973C58.8651 96.1222 58.8406 96.2458 58.7929 96.3612C58.7453 96.4765 58.6754 96.5813 58.5872 96.6696C58.499 96.7579 58.3943 96.8279 58.2791 96.8756C58.1639 96.9233 58.0404 96.9478 57.9157 96.9476ZM50.3207 108.353C48.7503 108.353 47.4726 107.074 47.4726 105.502C47.4726 103.93 48.7503 102.651 50.3207 102.651C51.8912 102.651 53.1689 103.93 53.1689 105.502C53.1689 107.074 51.8915 108.353 50.3207 108.353ZM50.3207 104.552C49.7979 104.552 49.3715 104.978 49.3715 105.502C49.3715 106.025 49.7979 106.452 50.3207 106.452C50.8436 106.452 51.2702 106.025 51.2702 105.502C51.2702 104.978 50.8436 104.552 50.3207 104.552ZM65.5109 108.353C63.9405 108.353 62.6628 107.074 62.6628 105.502C62.6628 103.93 63.9405 102.651 65.5109 102.651C67.0814 102.651 68.3588 103.93 68.3588 105.502C68.3588 107.074 67.0816 108.353 65.5109 108.353ZM65.5109 104.552C64.9881 104.552 64.5615 104.978 64.5615 105.502C64.5615 106.025 64.9881 106.452 65.5109 106.452C66.0338 106.452 66.4602 106.025 66.4602 105.502C66.4602 104.978 66.0338 104.552 65.5109 104.552ZM57.9157 89.344C57.7911 89.3441 57.6676 89.3195 57.5524 89.2718C57.4372 89.224 57.3325 89.1541 57.2444 89.0658C57.1562 88.9775 57.0863 88.8727 57.0386 88.7574C56.9909 88.6421 56.9664 88.5185 56.9665 88.3937V84.5917C56.9665 84.0661 57.391 83.6412 57.9157 83.6412C58.4405 83.6412 58.8652 84.0661 58.8652 84.5917V88.3937C58.8652 88.5185 58.8407 88.6421 58.793 88.7574C58.7453 88.8728 58.6753 88.9776 58.5871 89.0658C58.499 89.1541 58.3943 89.2241 58.2791 89.2718C58.1639 89.3195 58.0404 89.3441 57.9157 89.344ZM42.7258 83.6412C42.6011 83.6414 42.4776 83.6168 42.3624 83.569C42.2472 83.5212 42.1426 83.451 42.0546 83.3626C41.9664 83.2744 41.8964 83.1696 41.8487 83.0543C41.8009 82.939 41.7763 82.8155 41.7763 82.6906C41.7763 82.5658 41.8009 82.4422 41.8487 82.327C41.8964 82.2117 41.9664 82.1069 42.0546 82.0187L43.9533 80.1179C44.3243 79.7465 44.9249 79.7465 45.2956 80.1179C45.6664 80.4893 45.6666 81.0908 45.2956 81.462L43.3969 83.3626C43.309 83.4511 43.2044 83.5213 43.0892 83.5691C42.974 83.6169 42.8505 83.6414 42.7258 83.6412ZM42.7258 89.344C42.6011 89.3442 42.4776 89.3196 42.3624 89.2719C42.2473 89.2241 42.1427 89.154 42.0546 89.0656C41.9664 88.9774 41.8964 88.8727 41.8487 88.7574C41.8009 88.6421 41.7763 88.5185 41.7763 88.3937C41.7763 88.2689 41.8009 88.1453 41.8487 88.03C41.8964 87.9147 41.9664 87.81 42.0546 87.7218L49.6496 80.1179C50.0206 79.7465 50.6212 79.7465 50.9919 80.1179C51.3627 80.4893 51.3629 81.0908 50.9919 81.462L43.3969 89.0656C43.3089 89.154 43.2043 89.2242 43.0891 89.2719C42.9739 89.3197 42.8505 89.3442 42.7258 89.344ZM38.9284 77.9386H0.953062C0.82836 77.9387 0.704867 77.9142 0.589645 77.8664C0.474423 77.8187 0.369731 77.7486 0.281552 77.6604C0.193374 77.5721 0.12344 77.4673 0.0757473 77.3519C0.0280546 77.2366 0.00353872 77.1129 0.00360119 76.9881V38.9691C0.00353869 38.8443 0.0280563 38.7207 0.0757519 38.6053C0.123448 38.49 0.193386 38.3852 0.281567 38.2969C0.369748 38.2087 0.474442 38.1387 0.589663 38.0909C0.704884 38.0432 0.828371 38.0187 0.953062 38.0188H38.9284C39.0531 38.0187 39.1766 38.0432 39.2918 38.0909C39.407 38.1387 39.5117 38.2087 39.5998 38.2969C39.688 38.3852 39.7579 38.49 39.8056 38.6053C39.8532 38.7207 39.8777 38.8443 39.8776 38.9691V76.9878C39.8778 77.1127 39.8533 77.2364 39.8056 77.3517C39.758 77.4671 39.6881 77.572 39.5999 77.6603C39.5118 77.7486 39.4071 77.8186 39.2918 77.8664C39.1766 77.9141 39.0531 77.9387 38.9284 77.9386ZM1.90252 76.0373H37.9789V39.9199H1.90252V76.0373Z" fill="#141414"/>
<path d="M19.9406 70.3348C19.8159 70.3349 19.6924 70.3103 19.5772 70.2626C19.462 70.2149 19.3573 70.1449 19.2691 70.0566C19.1809 69.9684 19.111 69.8636 19.0633 69.7482C19.0156 69.6329 18.9911 69.5093 18.9912 69.3845C18.9912 69.0799 19.0358 61.9088 22.9853 59.2337C24.8044 57.9955 27.0945 57.9177 29.7867 58.9979C29.9024 59.0442 30.0079 59.1128 30.0971 59.2C30.1863 59.2871 30.2575 59.3909 30.3066 59.5056C30.3557 59.6202 30.3817 59.7435 30.3832 59.8682C30.3847 59.9929 30.3616 60.1168 30.3153 60.2326C30.1206 60.7187 29.5678 60.9583 29.0823 60.7615C27.0168 59.9373 25.3239 59.9485 24.0517 60.8062C20.9367 62.9131 20.8901 69.3214 20.8901 69.3847C20.8898 69.6366 20.7896 69.8782 20.6116 70.0563C20.4336 70.2344 20.1923 70.3346 19.9406 70.3348Z" fill="#141414"/>
<path d="M19.9406 70.3346C19.6889 70.3345 19.4475 70.2343 19.2694 70.0561C19.0914 69.8779 18.9913 69.6363 18.9911 69.3843C18.9911 69.321 18.945 62.913 15.8295 60.8058C14.5594 59.9483 12.8663 59.9371 10.7989 60.7611C10.6833 60.8075 10.5596 60.8306 10.4351 60.8291C10.3105 60.8276 10.1874 60.8016 10.0729 60.7525C9.9584 60.7033 9.85468 60.6321 9.76769 60.5428C9.6807 60.4535 9.61213 60.348 9.56592 60.2322C9.51958 60.1163 9.4965 59.9925 9.49799 59.8678C9.49948 59.7431 9.52552 59.6198 9.57461 59.5052C9.62369 59.3905 9.69487 59.2867 9.78408 59.1995C9.87328 59.1124 9.97876 59.0438 10.0945 58.9975C12.787 57.9173 15.079 57.997 16.8959 59.2333C20.8456 61.9084 20.89 69.0795 20.89 69.3841C20.8901 69.5089 20.8656 69.6325 20.8179 69.7479C20.7702 69.8632 20.7003 69.968 20.6121 70.0563C20.5239 70.1446 20.4192 70.2146 20.304 70.2624C20.1888 70.3101 20.0653 70.3347 19.9406 70.3346ZM19.9406 58.929C19.6892 58.9286 19.4483 58.8285 19.2704 58.6508C19.0925 58.473 18.9921 58.232 18.9911 57.9804C18.9873 57.0262 18.676 54.3288 17.2852 53.3283C16.6083 52.84 15.709 52.7879 14.5447 53.1779C14.0458 53.3468 13.5099 53.0737 13.3431 52.5764C13.264 52.3371 13.2828 52.0762 13.3953 51.8508C13.5079 51.6253 13.705 51.4537 13.9437 51.3734C15.7071 50.785 17.2072 50.9261 18.3977 51.7893C20.8622 53.566 20.8898 57.7983 20.8898 57.9784C20.8895 58.2301 20.7897 58.4714 20.6121 58.6495C20.4346 58.8276 20.1938 58.9281 19.9425 58.929H19.9406Z" fill="#141414"/>
<path d="M19.9406 58.929C19.8159 58.9291 19.6924 58.9045 19.5772 58.8568C19.462 58.809 19.3573 58.739 19.2691 58.6507C19.181 58.5625 19.111 58.4577 19.0633 58.3423C19.0156 58.227 18.9911 58.1033 18.9912 57.9785C18.9912 57.7984 19.019 53.566 21.4833 51.7893C22.6757 50.9261 24.1717 50.7831 25.9371 51.3734C26.1758 51.4536 26.3731 51.6252 26.4857 51.8507C26.5983 52.0762 26.6171 52.3371 26.5379 52.5764C26.4989 52.6952 26.4368 52.8051 26.3552 52.8998C26.2736 52.9944 26.174 53.0719 26.0623 53.1278C25.9506 53.1838 25.8289 53.217 25.7043 53.2256C25.5797 53.2342 25.4546 53.218 25.3363 53.1779C24.1717 52.7879 23.2743 52.8401 22.592 53.3302C21.196 54.3381 20.8899 57.0282 20.8899 57.9785C20.89 58.1033 20.8655 58.2269 20.8178 58.3423C20.7701 58.4576 20.7002 58.5625 20.6121 58.6507C20.5239 58.739 20.4192 58.809 20.304 58.8568C20.1888 58.9045 20.0653 58.9291 19.9406 58.929ZM12.3454 70.3346C10.7752 70.3346 9.49752 69.0557 9.49752 67.4835C9.49752 65.9112 10.7752 64.6321 12.3454 64.6321C13.9159 64.6321 15.1936 65.9112 15.1936 67.4835C15.1936 69.0557 13.9159 70.3346 12.3454 70.3346ZM12.3454 66.5327C11.8228 66.5327 11.3962 66.9598 11.3962 67.4832C11.3962 68.0067 11.8228 68.4335 12.3454 68.4335C12.8683 68.4335 13.2949 68.0067 13.2949 67.4832C13.2949 66.9598 12.8683 66.5327 12.3454 66.5327ZM27.5356 70.3346C25.9651 70.3346 24.6875 69.0557 24.6875 67.4835C24.6875 65.9112 25.9651 64.6321 27.5356 64.6321C29.1061 64.6321 30.3838 65.9112 30.3838 67.4835C30.3838 69.0557 29.1063 70.3346 27.5356 70.3346ZM27.5356 66.5327C27.0128 66.5327 26.5864 66.9598 26.5864 67.4832C26.5864 68.0067 27.0128 68.4335 27.5356 68.4335C28.0585 68.4335 28.4851 68.0067 28.4851 67.4832C28.4851 66.9598 28.0585 66.5327 27.5356 66.5327ZM19.9406 51.3251C19.816 51.3252 19.6925 51.3007 19.5772 51.253C19.462 51.2053 19.3573 51.1353 19.2691 51.047C19.181 50.9588 19.111 50.854 19.0633 50.7386C19.0156 50.6233 18.9911 50.4997 18.9912 50.3748V46.5729C18.9912 46.0475 19.4159 45.6223 19.9406 45.6223C20.4654 45.6223 20.8899 46.0475 20.8899 46.5729V50.3748C20.89 50.4996 20.8655 50.6233 20.8178 50.7386C20.7701 50.8539 20.7002 50.9587 20.6121 51.047C20.5239 51.1353 20.4192 51.2053 20.304 51.253C20.1888 51.3007 20.0653 51.3252 19.9406 51.3251ZM4.75046 45.6223C4.62579 45.6225 4.50232 45.5979 4.38714 45.5502C4.27196 45.5024 4.16735 45.4323 4.0793 45.3439C3.99108 45.2558 3.9211 45.151 3.87335 45.0357C3.8256 44.9204 3.80103 44.7968 3.80103 44.672C3.80103 44.5472 3.8256 44.4236 3.87335 44.3083C3.9211 44.193 3.99108 44.0883 4.0793 44.0001L5.97798 42.099C6.06611 42.0107 6.17074 41.9407 6.2859 41.893C6.40106 41.8452 6.52449 41.8206 6.64914 41.8206C6.77379 41.8206 6.89722 41.8452 7.01238 41.893C7.12754 41.9407 7.23217 42.0107 7.3203 42.099C7.40849 42.1872 7.47846 42.292 7.52619 42.4073C7.57392 42.5226 7.59849 42.6462 7.59849 42.771C7.59849 42.8959 7.57392 43.0195 7.52619 43.1348C7.47846 43.2501 7.40849 43.3549 7.3203 43.4431L5.42162 45.3439C5.33363 45.4324 5.22902 45.5025 5.11383 45.5503C4.99864 45.5981 4.87514 45.6226 4.75046 45.6223ZM4.75046 51.3251C4.62579 51.3253 4.50232 51.3007 4.38714 51.253C4.27196 51.2052 4.16735 51.1351 4.0793 51.0467C3.99108 50.9586 3.9211 50.8538 3.87335 50.7385C3.8256 50.6232 3.80103 50.4996 3.80103 50.3748C3.80103 50.25 3.8256 50.1264 3.87335 50.0111C3.9211 49.8958 3.99108 49.7911 4.0793 49.7029L11.6743 42.099C11.7624 42.0107 11.8671 41.9407 11.9823 41.893C12.0974 41.8452 12.2209 41.8206 12.3455 41.8206C12.4702 41.8206 12.5937 41.8452 12.7088 41.893C12.824 41.9407 12.9287 42.0107 13.0168 42.099C13.105 42.1873 13.1749 42.292 13.2226 42.4073C13.2703 42.5227 13.2949 42.6462 13.2949 42.771C13.2949 42.8959 13.2703 43.0195 13.2226 43.1348C13.1749 43.2501 13.105 43.3548 13.0168 43.4431L5.42162 51.0467C5.33359 51.1351 5.22898 51.2052 5.1138 51.253C4.99861 51.3008 4.87513 51.3253 4.75046 51.3251ZM73.1059 5.70298H42.7258C42.201 5.70298 41.7763 5.27779 41.7763 4.75243C41.7763 4.22707 42.201 3.80212 42.7258 3.80212H73.1059C73.6307 3.80212 74.0554 4.22707 74.0554 4.75243C74.0554 5.27779 73.6307 5.70298 73.1059 5.70298ZM69.3086 11.4058H42.7258C42.201 11.4058 41.7763 10.9806 41.7763 10.4552C41.7763 9.92987 42.201 9.50492 42.7258 9.50492H69.3086C69.8333 9.50492 70.258 9.92987 70.258 10.4552C70.258 10.9806 69.8333 11.4058 69.3086 11.4058ZM71.2073 17.1083H42.7258C42.201 17.1083 41.7763 16.6834 41.7763 16.158C41.7763 15.6327 42.201 15.2075 42.7258 15.2075H71.2073C71.732 15.2075 72.1565 15.6327 72.1565 16.158C72.1565 16.6834 71.732 17.1083 71.2073 17.1083ZM73.1059 22.8111H42.7258C42.201 22.8111 41.7763 22.3862 41.7763 21.8608C41.7763 21.3355 42.201 20.9103 42.7258 20.9103H73.1059C73.6307 20.9103 74.0554 21.3355 74.0554 21.8608C74.0554 22.3862 73.6307 22.8111 73.1059 22.8111ZM73.1059 28.5142H42.7258C42.201 28.5142 41.7763 28.089 41.7763 27.5636C41.7763 27.0383 42.201 26.6131 42.7258 26.6131H73.1059C73.6307 26.6131 74.0554 27.0383 74.0554 27.5636C74.0554 28.089 73.6307 28.5142 73.1059 28.5142ZM73.1059 34.217H42.7258C42.201 34.217 41.7763 33.7918 41.7763 33.2664C41.7763 32.7411 42.201 32.3161 42.7258 32.3161H73.1059C73.6307 32.3161 74.0554 32.7411 74.0554 33.2664C74.0554 33.7918 73.6307 34.217 73.1059 34.217Z" fill="#141414"/>
</svg>
