<svg xmlns="http://www.w3.org/2000/svg" id="SvgjsSvg6383" width="4096" height="2343.1301625483584" version="1.1" xmlns:xlink="http://www.w3.org/1999/xlink" xmlns:svgjs="http://svgjs.com/svgjs"><defs id="SvgjsDefs6384"></defs><g id="SvgjsG6385" transform="translate(328, 328.0000000000001) scale(34.4)" opacity="1"><defs id="SvgjsDefs2554"></defs><g id="SvgjsG2555" transform="scale(0.21401362077045033)" opacity="1"><g id="SvgjsG2556" class="JxlzyiTTH" transform="translate(166.05042620044767, -3.3408970462025955) scale(0.2710667085077381)" light-content="false" non-strokable="false" fill="#141414"><path d="M390.868 181.725c-14.41 0-28.774-5.859-39.447-16.533-20.379-20.379-38.012-103.932-38.753-107.474a3.988 3.988 0 0 1 1.084-3.644 4.007 4.007 0 0 1 3.644-1.084c3.542.741 87.079 18.39 107.458 38.753 13.692 13.692 19.481 33.502 15.104 51.681-.522 2.138-2.652 3.417-4.821 2.949a3.997 3.997 0 0 1-2.949-4.821c3.737-15.495-1.24-32.418-12.982-44.16-15.745-15.736-77.654-30.771-97.378-35.242 4.471 19.724 19.498 81.649 35.242 97.394 11.75 11.75 28.665 16.704 44.16 12.967 2.168-.483 4.307.812 4.821 2.949s-.804 4.299-2.949 4.822a51.994 51.994 0 0 1-12.234 1.443z"></path><path d="M446.513 179.532a3.98 3.98 0 0 1-2.824-1.171l-39.557-39.541c-1.561-1.56-1.561-4.088 0-5.648s4.088-1.561 5.648 0l39.557 39.541a3.991 3.991 0 0 1 0 5.648 3.98 3.98 0 0 1-2.824 1.171zm-11.314 11.297a3.981 3.981 0 0 1-2.824-1.17l-39.541-39.541c-1.561-1.561-1.561-4.088 0-5.648s4.089-1.561 5.648 0l39.541 39.541a3.991 3.991 0 0 1 0 5.648 3.98 3.98 0 0 1-2.824 1.17z"></path><path d="M429.551 196.479a3.982 3.982 0 0 1-2.824-1.171 3.991 3.991 0 0 1 0-5.648l22.61-22.595c1.561-1.561 4.088-1.561 5.648 0s1.561 4.088 0 5.648l-22.61 22.595a3.982 3.982 0 0 1-2.824 1.171z"></path><path d="M502.999 224.722a3.983 3.983 0 0 1-2.824-1.17l-50.838-50.839c-1.561-1.561-1.561-4.088 0-5.648s4.088-1.561 5.648 0l50.838 50.838a3.993 3.993 0 0 1-2.824 6.819zm-22.595 22.594a3.983 3.983 0 0 1-2.824-1.17l-50.854-50.839a3.991 3.991 0 0 1 0-5.648 3.991 3.991 0 0 1 5.648 0l50.854 50.838a3.994 3.994 0 0 1-2.824 6.819z"></path><path d="M491.702 252.006a19.823 19.823 0 0 1-14.122-5.859c-1.561-1.568-1.561-4.097 0-5.649a3.994 3.994 0 0 1 5.649 0c4.54 4.541 12.404 4.541 16.945 0 4.666-4.665 4.666-12.272 0-16.945-1.561-1.568-1.561-4.097 0-5.649a3.991 3.991 0 0 1 5.648 0c7.779 7.795 7.779 20.465 0 28.244a19.82 19.82 0 0 1-14.12 5.858zm-96.044-100.718a3.981 3.981 0 0 1-2.824-1.17c-4.673-4.674-4.673-12.272 0-16.946 4.666-4.665 12.28-4.665 16.946 0a3.991 3.991 0 0 1 0 5.648 3.991 3.991 0 0 1-5.648 0 3.994 3.994 0 1 0-5.649 5.649 3.991 3.991 0 0 1 0 5.648 3.98 3.98 0 0 1-2.825 1.171zM164.14 499.675H4.353a3.992 3.992 0 0 1-3.995-3.994V335.894a3.993 3.993 0 0 1 3.995-3.995H164.14a3.992 3.992 0 0 1 3.994 3.995v159.787a3.991 3.991 0 0 1-3.994 3.994zM8.348 491.686h151.797V339.889H8.348v151.797z"></path><path d="M20.331 363.856a3.98 3.98 0 0 1-2.824-1.171 3.991 3.991 0 0 1 0-5.648l7.989-7.989a3.991 3.991 0 0 1 5.648 0 3.993 3.993 0 0 1 0 5.649l-7.989 7.988a3.972 3.972 0 0 1-2.824 1.171zm0 23.968a3.983 3.983 0 0 1-2.824-1.17 3.991 3.991 0 0 1 0-5.648l31.957-31.958c1.561-1.561 4.089-1.561 5.649 0s1.561 4.089 0 5.649l-31.958 31.957a3.975 3.975 0 0 1-2.824 1.17zm463.382 111.851H323.926a3.991 3.991 0 0 1-3.994-3.994V335.894a3.992 3.992 0 0 1 3.994-3.995h159.787a3.992 3.992 0 0 1 3.994 3.995v159.787a3.991 3.991 0 0 1-3.994 3.994zm-155.792-7.989h151.797V339.889H327.921v151.797z"></path><path d="M339.905 363.856a3.993 3.993 0 0 1-2.825-6.819l7.989-7.989a3.991 3.991 0 0 1 5.648 0 3.993 3.993 0 0 1 0 5.649l-7.988 7.988a3.976 3.976 0 0 1-2.824 1.171zm0 23.968a3.993 3.993 0 0 1-2.825-6.818l31.958-31.958c1.561-1.561 4.088-1.561 5.648 0s1.561 4.089 0 5.649l-31.957 31.957a3.979 3.979 0 0 1-2.824 1.17zm-15.979-47.935H164.14a3.993 3.993 0 0 1-3.995-3.995V176.106a3.992 3.992 0 0 1 3.995-3.994h159.786a3.992 3.992 0 0 1 3.995 3.994v159.787a3.993 3.993 0 0 1-3.995 3.996zm-155.792-7.991h151.798V180.102H168.134v151.796z"></path><path d="M180.118 204.069a3.981 3.981 0 0 1-2.824-1.17 3.991 3.991 0 0 1 0-5.648l7.989-7.99a3.993 3.993 0 0 1 5.648 0 3.993 3.993 0 0 1 0 5.649l-7.989 7.989a3.977 3.977 0 0 1-2.824 1.17zm0 23.968a3.981 3.981 0 0 1-2.824-1.17 3.991 3.991 0 0 1 0-5.648l31.957-31.958a3.993 3.993 0 0 1 5.648 0 3.993 3.993 0 0 1 0 5.649l-31.957 31.957a3.981 3.981 0 0 1-2.824 1.17zm-15.994-47.935H4.337a3.992 3.992 0 0 1-3.994-3.995V16.32a3.992 3.992 0 0 1 3.994-3.995h159.787a3.992 3.992 0 0 1 3.994 3.995v159.786a3.993 3.993 0 0 1-3.994 3.996zm-155.792-7.99h151.797V20.314H8.332v151.798z"></path><path d="M20.315 44.283a3.984 3.984 0 0 1-2.824-1.171 3.991 3.991 0 0 1 0-5.648l7.989-7.989a3.991 3.991 0 0 1 5.648 0 3.991 3.991 0 0 1 0 5.648l-7.989 7.989a3.976 3.976 0 0 1-2.824 1.171zm0 23.968a3.993 3.993 0 0 1-2.824-6.819l31.957-31.957c1.561-1.561 4.089-1.561 5.649 0s1.561 4.088 0 5.648L23.14 67.081a3.988 3.988 0 0 1-2.825 1.17zm303.611 431.424H164.14a3.992 3.992 0 0 1-3.995-3.994V335.894a3.993 3.993 0 0 1 3.995-3.995h159.786a3.993 3.993 0 0 1 3.995 3.995v159.787a3.992 3.992 0 0 1-3.995 3.994zm-155.792-7.989h151.798V339.889H168.134v151.797z"></path><path d="M244.032 467.718a3.992 3.992 0 0 1-3.994-3.995c0-1.279.188-31.419 16.806-42.661 7.653-5.196 17.289-5.524 28.618-.991 2.052.819 3.043 3.145 2.224 5.188s-3.145 3.043-5.188 2.224c-8.691-3.464-15.814-3.418-21.167.188-13.107 8.855-13.303 35.788-13.303 36.053a4 4 0 0 1-3.996 3.994z"></path><path d="M244.032 467.718a3.997 3.997 0 0 1-3.994-3.995c0-.265-.195-27.197-13.303-36.053-5.345-3.605-12.468-3.651-21.167-.188-2.036.819-4.369-.18-5.188-2.224s.172-4.369 2.224-5.188c11.329-4.533 20.972-4.197 28.618.991 16.618 11.242 16.806 41.382 16.806 42.661a3.995 3.995 0 0 1-3.996 3.996zm0-47.937a4 4 0 0 1-3.994-3.986c-.016-4.011-1.326-15.347-7.178-19.553-2.855-2.059-6.632-2.277-11.532-.631-2.075.701-4.354-.438-5.056-2.528a4.007 4.007 0 0 1 2.528-5.056c7.42-2.474 13.724-1.881 18.74 1.748 10.369 7.466 10.486 25.255 10.486 26.012a4 4 0 0 1-3.987 3.994h-.007z"></path><path d="M244.032 419.781a3.991 3.991 0 0 1-3.994-3.994c0-.757.117-18.546 10.485-26.012 5.01-3.637 11.321-4.222 18.741-1.748a4.004 4.004 0 0 1 2.527 5.056 3.986 3.986 0 0 1-5.055 2.528c-4.893-1.646-8.677-1.42-11.548.639-5.875 4.237-7.162 15.542-7.162 19.537a3.99 3.99 0 0 1-3.994 3.994zm-31.957 47.937c-6.608 0-11.984-5.376-11.984-11.984s5.376-11.983 11.984-11.983 11.984 5.375 11.984 11.983-5.375 11.984-11.984 11.984zm0-15.979c-2.2 0-3.994 1.794-3.994 3.994s1.794 3.995 3.994 3.995 3.995-1.795 3.995-3.995-1.795-3.994-3.995-3.994zm63.915 15.979c-6.608 0-11.984-5.376-11.984-11.984s5.376-11.983 11.984-11.983 11.983 5.375 11.983 11.983-5.374 11.984-11.983 11.984zm0-15.979c-2.2 0-3.995 1.794-3.995 3.994s1.795 3.995 3.995 3.995 3.994-1.795 3.994-3.995-1.794-3.994-3.994-3.994zm-31.958-63.915a3.992 3.992 0 0 1-3.994-3.994v-15.979c0-2.209 1.786-3.995 3.994-3.995s3.995 1.786 3.995 3.995v15.979a3.993 3.993 0 0 1-3.995 3.994zm-63.914-23.968a3.978 3.978 0 0 1-2.824-1.171 3.991 3.991 0 0 1 0-5.648l7.989-7.989c1.561-1.561 4.088-1.561 5.648 0s1.561 4.089 0 5.649l-7.989 7.988a3.974 3.974 0 0 1-2.824 1.171zm0 23.968a3.981 3.981 0 0 1-2.824-1.17 3.991 3.991 0 0 1 0-5.648l31.957-31.958c1.561-1.561 4.088-1.561 5.648 0s1.561 4.089 0 5.649l-31.957 31.957a3.977 3.977 0 0 1-2.824 1.17zm-15.978-47.935H4.353a3.993 3.993 0 0 1-3.995-3.995V176.106a3.992 3.992 0 0 1 3.995-3.994H164.14a3.991 3.991 0 0 1 3.994 3.994v159.787a3.992 3.992 0 0 1-3.994 3.996zM8.348 331.898h151.797V180.102H8.348v151.796z"></path><path d="M84.246 307.931a3.992 3.992 0 0 1-3.995-3.994c0-1.28.188-31.419 16.806-42.662 7.654-5.204 17.29-5.531 28.618-.991a3.99 3.99 0 0 1 2.224 5.189c-.819 2.043-3.145 3.05-5.188 2.223-8.691-3.464-15.814-3.417-21.167.188-13.107 8.855-13.303 35.788-13.303 36.054a3.998 3.998 0 0 1-3.995 3.993z"></path><path d="M84.246 307.931a3.997 3.997 0 0 1-3.995-3.994c0-.266-.194-27.198-13.303-36.054-5.344-3.604-12.468-3.651-21.167-.188a3.989 3.989 0 0 1-5.188-2.223 3.99 3.99 0 0 1 2.224-5.189c11.329-4.54 20.973-4.205 28.618.991 16.619 11.243 16.806 41.382 16.806 42.662a3.993 3.993 0 0 1-3.995 3.995zm0-47.936a4.002 4.002 0 0 1-3.995-3.987c-.016-4.01-1.326-15.347-7.178-19.552-2.848-2.052-6.632-2.271-11.531-.632-2.099.71-4.354-.438-5.056-2.528a4.006 4.006 0 0 1 2.527-5.056c7.42-2.473 13.732-1.88 18.741 1.748C88.124 237.455 88.24 255.243 88.24 256a4 4 0 0 1-3.986 3.995h-.008z"></path><path d="M84.246 259.995A3.993 3.993 0 0 1 80.251 256c0-.757.117-18.545 10.486-26.012 5.017-3.628 11.312-4.229 18.74-1.748a4.005 4.005 0 0 1 2.528 5.056 3.98 3.98 0 0 1-5.056 2.528c-4.9-1.639-8.676-1.42-11.547.64C89.528 240.7 88.24 252.006 88.24 256a3.992 3.992 0 0 1-3.994 3.995zm-31.958 47.936c-6.607 0-11.983-5.375-11.983-11.983s5.376-11.984 11.983-11.984c6.608 0 11.984 5.376 11.984 11.984s-5.376 11.983-11.984 11.983zm0-15.979c-2.199 0-3.994 1.795-3.994 3.995s1.795 3.994 3.994 3.994c2.2 0 3.995-1.794 3.995-3.994s-1.795-3.995-3.995-3.995zm63.915 15.979c-6.608 0-11.984-5.375-11.984-11.983s5.376-11.984 11.984-11.984 11.984 5.376 11.984 11.984-5.375 11.983-11.984 11.983zm0-15.979c-2.2 0-3.994 1.795-3.994 3.995s1.794 3.994 3.994 3.994 3.995-1.794 3.995-3.994-1.795-3.995-3.995-3.995zm-31.957-63.915a3.992 3.992 0 0 1-3.995-3.994v-15.979c0-2.208 1.787-3.995 3.995-3.995s3.994 1.787 3.994 3.995v15.979a3.991 3.991 0 0 1-3.994 3.994zm-63.915-23.968a3.983 3.983 0 0 1-2.824-1.17 3.991 3.991 0 0 1 0-5.648l7.989-7.99a3.993 3.993 0 0 1 5.648 0 3.993 3.993 0 0 1 0 5.649l-7.989 7.989a3.975 3.975 0 0 1-2.824 1.17zm0 23.968a3.983 3.983 0 0 1-2.824-1.17 3.991 3.991 0 0 1 0-5.648l31.957-31.958a3.994 3.994 0 1 1 5.649 5.649l-31.958 31.957a3.98 3.98 0 0 1-2.824 1.17zM307.947 36.294H180.118c-2.208 0-3.995-1.787-3.995-3.995s1.787-3.994 3.995-3.994h127.829c2.208 0 3.995 1.786 3.995 3.994s-1.787 3.995-3.995 3.995zm-15.978 23.968H180.118c-2.208 0-3.995-1.787-3.995-3.995s1.787-3.994 3.995-3.994h111.851c2.208 0 3.995 1.786 3.995 3.994s-1.787 3.995-3.995 3.995zm7.989 23.967h-119.84c-2.208 0-3.995-1.786-3.995-3.994s1.787-3.995 3.995-3.995h119.84c2.208 0 3.994 1.787 3.994 3.995s-1.786 3.994-3.994 3.994zm7.989 23.968H180.118c-2.208 0-3.995-1.786-3.995-3.994s1.787-3.995 3.995-3.995h127.829c2.208 0 3.995 1.787 3.995 3.995s-1.787 3.994-3.995 3.994zm0 23.969H180.118c-2.208 0-3.995-1.787-3.995-3.995s1.787-3.995 3.995-3.995h127.829c2.208 0 3.995 1.787 3.995 3.995s-1.787 3.995-3.995 3.995zm0 23.968H180.118c-2.208 0-3.995-1.787-3.995-3.995s1.787-3.994 3.995-3.994h127.829c2.208 0 3.995 1.786 3.995 3.994s-1.787 3.995-3.995 3.995z"></path></g><rect id="SvgjsRect2557" width="461.99999999999994" height="1.5517936316001608" fill="#141414" transform="translate(4.443401775360101, 141.41512262331304) scale(1)" light-content="false"></rect><g id="SvgjsG2558" class="text" transform="translate(233.72, 187.07612112883467) scale(1)" light-content="false" fill="#141414"><path d="M-201.46 -16.85C-201.46 -22.47 -202.95 -26.5 -205.93 -28.93C-208.91 -31.37 -213.38 -32.59 -219.34 -32.59L-233.72 -32.59L-233.72 -31.7L-230.65 -31.7L-230.65 -0.88L-233.72 -0.88L-233.72 0L-220.55 0C-214.74 0 -210.18 -1.16 -206.86 -3.49C-203.26 -6.01 -201.46 -10.46 -201.46 -16.85ZM-221.57 -0.88L-221.57 -31.7L-220.46 -31.7C-218.13 -31.7 -216.33 -31.36 -215.06 -30.68C-212.39 -29.25 -211.05 -25.05 -211.05 -18.06L-211.05 -15.36C-211.05 -10.15 -211.73 -6.43 -213.08 -4.21C-214.43 -1.99 -216.67 -0.88 -219.8 -0.88Z M-185.94 -3.35C-186.91 -4.87 -187.4 -7.06 -187.4 -9.92L-187.4 -31.7L-184.38 -31.7L-184.38 -32.59L-199.04 -32.59L-199.04 -31.7L-196.48 -31.7L-196.48 -11.5C-196.48 -7.12 -195.34 -4.03 -193.06 -2.23C-190.78 -0.43 -187.47 0.47 -183.14 0.47C-178.81 0.47 -175.79 -0.48 -174.09 -2.37C-172.38 -4.27 -171.53 -7.14 -171.53 -10.99L-171.53 -31.7L-168.97 -31.7L-168.97 -32.59L-175.76 -32.59L-175.76 -31.7L-172.74 -31.7L-172.74 -10.66C-172.74 -7.43 -173.42 -5.03 -174.79 -3.44C-176.15 -1.86 -178.11 -1.07 -180.65 -1.07C-183.2 -1.07 -184.96 -1.83 -185.94 -3.35Z M-167.06 -32.59L-167.06 -31.7L-164.5 -31.7L-164.5 -0.88L-167.06 -0.88L-167.06 0L-152.86 0L-152.86 -0.88L-155.42 -0.88L-155.42 -31.7L-152.86 -31.7L-152.86 -32.59Z M-150.72 -32.59L-150.72 -31.56L-147.97 -31.56L-147.97 -1.02L-150.72 -1.02L-150.72 0L-133.12 0L-133.12 -1.02L-138.89 -1.02L-138.89 -15.22L-136.8 -15.22C-135.28 -15.22 -134.07 -14.73 -133.19 -13.73C-132.31 -12.74 -131.62 -11.08 -131.12 -8.75L-130.33 -8.75L-130.33 -22.53L-131.03 -22.53C-131.4 -20.64 -132.08 -19.15 -133.07 -18.06C-134.07 -16.98 -135.31 -16.43 -136.8 -16.43L-138.89 -16.43L-138.89 -31.56L-137.59 -31.56C-134.61 -31.56 -132.37 -30.96 -130.86 -29.75C-129.36 -28.54 -128.03 -26.26 -126.88 -22.9L-126.04 -22.9L-126.51 -32.59Z M-86.15 -32.59L-113.61 -32.59L-114.08 -20.9L-113.2 -20.9C-111.89 -24.91 -110.7 -27.69 -109.61 -29.26C-108.52 -30.83 -106.99 -31.61 -105 -31.61L-104.4 -31.61L-104.4 -0.98L-108.35 -0.98L-108.35 0L-91.36 0L-91.36 -0.98L-95.32 -0.98L-95.32 -31.61L-94.76 -31.61C-92.77 -31.61 -91.25 -30.86 -90.2 -29.35C-89.14 -27.85 -87.93 -25.03 -86.57 -20.9L-85.68 -20.9Z M-82.98 -32.59L-82.98 -31.56L-80.24 -31.56L-80.24 -1.02L-82.98 -1.02L-82.98 0L-57.42 0L-57.05 -10.15L-57.98 -10.15C-58.73 -7.48 -60.1 -5.29 -62.1 -3.58C-64.1 -1.88 -66.53 -1.02 -69.39 -1.02L-71.16 -1.02L-71.16 -15.97L-70.04 -15.97C-68.4 -15.97 -67.1 -15.47 -66.15 -14.48C-65.21 -13.49 -64.45 -11.82 -63.9 -9.5L-63.1 -9.5L-63.1 -23.28L-63.8 -23.28C-64.21 -21.41 -64.9 -19.93 -65.9 -18.83C-66.89 -17.73 -68.12 -17.18 -69.57 -17.18L-71.16 -17.18L-71.16 -31.56L-69.53 -31.56C-66.77 -31.56 -64.67 -30.98 -63.24 -29.82C-61.82 -28.65 -60.45 -26.5 -59.15 -23.37L-58.31 -23.37L-58.77 -32.59Z M-37.92 -0.47C-40.09 -0.47 -41.76 -1.65 -42.92 -4.03C-44.09 -6.4 -44.67 -9.92 -44.67 -14.57L-44.67 -18.25C-44.67 -27.53 -42.29 -32.17 -37.55 -32.17C-35.65 -32.17 -33.94 -31.31 -32.4 -29.58C-30.87 -27.86 -29.34 -25.5 -27.82 -22.49L-26.98 -22.49L-27.35 -32.59L-27.86 -32.59C-28.05 -32.25 -28.22 -32.01 -28.37 -31.87C-28.53 -31.73 -28.76 -31.66 -29.07 -31.66C-29.38 -31.66 -30.49 -31.9 -32.4 -32.38C-34.31 -32.86 -36.21 -33.1 -38.1 -33.1C-43.01 -33.1 -46.91 -31.61 -49.81 -28.63C-52.71 -25.65 -54.17 -21.42 -54.17 -15.94C-54.17 -10.47 -52.78 -6.36 -50 -3.63C-47.22 -0.9 -43.3 0.47 -38.24 0.47C-36.72 0.47 -34.88 0.19 -32.73 -0.37C-30.57 -0.93 -29.27 -1.21 -28.84 -1.21C-27.82 -1.21 -27.02 -0.82 -26.47 -0.05L-25.77 -0.05L-25.77 -13.17L-23.95 -13.17L-23.95 -14.2L-37.36 -14.2L-37.36 -13.17L-34.38 -13.17L-34.38 -4.14C-34.38 -2.81 -34.59 -1.86 -35.01 -1.3C-35.43 -0.74 -36.4 -0.47 -37.92 -0.47Z M-21.44 -32.59L-21.44 -31.56L-18.69 -31.56L-18.69 -1.02L-21.44 -1.02L-21.44 0L4.12 0L4.49 -10.15L3.56 -10.15C2.82 -7.48 1.44 -5.29 -0.56 -3.58C-2.56 -1.88 -4.99 -1.02 -7.84 -1.02L-9.61 -1.02L-9.61 -15.97L-8.5 -15.97C-6.85 -15.97 -5.56 -15.47 -4.61 -14.48C-3.66 -13.49 -2.91 -11.82 -2.35 -9.5L-1.56 -9.5L-1.56 -23.28L-2.26 -23.28C-2.66 -21.41 -3.36 -19.93 -4.35 -18.83C-5.35 -17.73 -6.57 -17.18 -8.03 -17.18L-9.61 -17.18L-9.61 -31.56L-7.98 -31.56C-5.22 -31.56 -3.13 -30.98 -1.7 -29.82C-0.27 -28.65 1.09 -26.5 2.4 -23.37L3.24 -23.37L2.77 -32.59Z M7.61 -32.59L7.61 -31.56L10.36 -31.56L10.36 -1.02L7.61 -1.02L7.61 0L32.29 0L33.17 -10.89L32.19 -10.89C30.58 -7.54 28.99 -5.06 27.42 -3.44C25.85 -1.83 23.75 -1.02 21.11 -1.02L19.44 -1.02L19.44 -31.56L24.37 -31.56L24.37 -32.59Z M50.39 -9.4L42.81 -31.7L46.06 -31.7L46.06 -32.59L30.94 -32.59L30.94 -31.7L33.12 -31.7L44.85 0.47L48.9 0.47L54.96 -20.58L61.85 0.47L65.99 0.47L74.56 -31.7L77.63 -31.7L77.63 -32.59L68.32 -32.59L68.32 -31.7L73.02 -31.7L67.43 -9.68L60.5 -31.7L63.24 -31.7L63.24 -32.59L48.81 -32.59L48.81 -31.7L51.47 -31.7L54.26 -22.81Z M78.89 -32.59L78.89 -31.56L81.63 -31.56L81.63 -1.02L78.89 -1.02L78.89 0L104.44 0L104.82 -10.15L103.88 -10.15C103.14 -7.48 101.77 -5.29 99.76 -3.58C97.76 -1.88 95.33 -1.02 92.48 -1.02L90.71 -1.02L90.71 -15.97L91.83 -15.97C93.47 -15.97 94.77 -15.47 95.71 -14.48C96.66 -13.49 97.41 -11.82 97.97 -9.5L98.76 -9.5L98.76 -23.28L98.07 -23.28C97.66 -21.41 96.96 -19.93 95.97 -18.83C94.98 -17.73 93.75 -17.18 92.29 -17.18L90.71 -17.18L90.71 -31.56L92.34 -31.56C95.1 -31.56 97.2 -30.98 98.62 -29.82C100.05 -28.65 101.42 -26.5 102.72 -23.37L103.56 -23.37L103.09 -32.59Z M122.23 -16.48C123.44 -16.48 124.27 -16.08 124.72 -15.27C125.17 -14.46 125.39 -13.19 125.39 -11.45L125.39 -8.05C125.39 -4.76 125.93 -2.52 127 -1.33C128.07 -0.13 129.88 0.47 132.42 0.47C134.97 0.47 136.67 0.02 137.52 -0.88C138.37 -1.78 138.97 -3.55 139.31 -6.19L138.52 -6.28C138.24 -4.64 137.94 -3.56 137.61 -3.05C137.29 -2.54 136.84 -2.28 136.29 -2.28C135.73 -2.28 135.36 -2.56 135.19 -3.12C135.02 -3.68 134.94 -4.76 134.94 -6.38L134.94 -8.85C134.94 -11.55 134.44 -13.47 133.45 -14.62C132.45 -15.77 130.7 -16.51 128.19 -16.85L128.19 -16.99C130.85 -17.21 132.84 -17.88 134.14 -19.02C135.45 -20.15 136.1 -22.04 136.1 -24.67C136.1 -27.31 135.36 -29.24 133.87 -30.45C133.18 -31.04 132 -31.54 130.3 -31.96C128.61 -32.38 125.75 -32.59 121.71 -32.59L107.66 -32.59L107.66 -31.7L110.68 -31.7L110.68 -0.88L107.66 -0.88L107.66 0L122.79 0L122.79 -0.88L119.76 -0.88L119.76 -16.48ZM119.76 -31.7L121.3 -31.7C123.1 -31.7 124.41 -31.31 125.23 -30.52C126.05 -29.72 126.46 -28.1 126.46 -25.65L126.46 -24.3C126.46 -21.85 126.04 -20.08 125.18 -18.99C124.33 -17.91 123.02 -17.36 121.25 -17.36L119.76 -17.36Z M141.45 -32.59L141.45 -31.7L144.01 -31.7L144.01 -0.88L141.45 -0.88L141.45 0L155.65 0L155.65 -0.88L153.09 -0.88L153.09 -15.64L153.51 -15.74L161.19 -0.88L159 -0.88L159 0L173.95 0L173.95 -0.88L171.43 -0.88L160.26 -22.76L168.27 -31.7L171.06 -31.7L171.06 -32.59L162.92 -32.59L162.92 -31.7L166.59 -31.7L153.46 -17.09L153.09 -16.99L153.09 -31.7L155.65 -31.7L155.65 -32.59Z M175.44 -32.59L175.44 -31.56L178.18 -31.56L178.18 -1.02L175.44 -1.02L175.44 0L201 0L201.37 -10.15L200.44 -10.15C199.69 -7.48 198.32 -5.29 196.32 -3.58C194.32 -1.88 191.89 -1.02 189.03 -1.02L187.26 -1.02L187.26 -15.97L188.38 -15.97C190.02 -15.97 191.32 -15.47 192.27 -14.48C193.21 -13.49 193.97 -11.82 194.53 -9.5L195.32 -9.5L195.32 -23.28L194.62 -23.28C194.21 -21.41 193.52 -19.93 192.52 -18.83C191.53 -17.73 190.3 -17.18 188.85 -17.18L187.26 -17.18L187.26 -31.56L188.89 -31.56C191.65 -31.56 193.75 -30.98 195.18 -29.82C196.6 -28.65 197.97 -26.5 199.27 -23.37L200.11 -23.37L199.65 -32.59Z M230.98 -31.7L233.54 -31.7L233.54 -32.59L227.16 -32.59L227.16 -31.7L229.72 -31.7L229.72 -9.22L217.52 -32.59L204.67 -32.59L204.67 -31.7L207.23 -31.7L207.23 -0.88L204.67 -0.88L204.67 0L211.05 0L211.05 -0.88L208.49 -0.88L208.49 -30.12L224.46 0L230.98 0Z"></path></g><rect id="SvgjsRect2559" width="461.99999999999994" height="1.5517936316001608" fill="#141414" transform="translate(4.443401775360101, 196.87622701670273) scale(1)" light-content="false"></rect><g id="SvgjsG2560" class="text" transform="translate(233.76410169495503, 228.93523515706937) scale(1)" light-content="false" fill="#141414"><path d="M-67.06 -2.05C-65.89 -0.53 -64.17 0.23 -61.92 0.23C-59.66 0.23 -57.9 -0.44 -56.64 -1.78C-55.39 -3.12 -54.76 -5.25 -54.76 -8.17C-54.76 -11.09 -55.38 -13.21 -56.63 -14.55C-57.88 -15.88 -59.6 -16.55 -61.78 -16.55C-63.96 -16.55 -65.68 -15.88 -66.93 -14.54C-68.19 -13.19 -68.82 -11.16 -68.82 -8.43C-68.82 -5.7 -68.23 -3.57 -67.06 -2.05ZM-64.05 -9.03C-64.05 -11.89 -63.93 -13.77 -63.7 -14.69C-63.46 -15.6 -62.82 -16.06 -61.77 -16.06C-60.71 -16.06 -60.07 -15.61 -59.84 -14.72C-59.62 -13.83 -59.51 -11.86 -59.51 -8.82L-59.51 -6.77C-59.51 -5.76 -59.52 -4.76 -59.55 -3.77C-59.57 -3.26 -59.6 -2.87 -59.65 -2.61C-59.69 -2.34 -59.75 -2.06 -59.82 -1.75C-59.89 -1.44 -59.98 -1.21 -60.09 -1.06C-60.2 -0.91 -60.33 -0.76 -60.5 -0.62C-60.66 -0.47 -60.85 -0.37 -61.06 -0.33C-61.26 -0.28 -61.58 -0.26 -62 -0.26C-62.42 -0.26 -62.78 -0.35 -63.09 -0.55C-63.4 -0.74 -63.63 -1.17 -63.77 -1.84C-63.91 -2.51 -63.99 -3.15 -64.01 -3.77C-64.03 -4.39 -64.05 -5.45 -64.05 -6.96Z M-53.27 -7.17C-53.27 -2.23 -51.06 0.23 -46.64 0.23C-44.68 0.23 -43.12 -0.29 -41.96 -1.33C-40.79 -2.37 -40.21 -3.72 -40.21 -5.38C-40.21 -7.04 -40.65 -8.28 -41.54 -9.11C-42.42 -9.94 -43.63 -10.36 -45.17 -10.36C-46.71 -10.36 -47.88 -9.73 -48.68 -8.47C-48.67 -11.27 -48.4 -13.23 -47.89 -14.37C-47.38 -15.51 -46.57 -16.08 -45.47 -16.08C-44.37 -16.08 -43.82 -15.6 -43.82 -14.62C-43.82 -14.31 -43.87 -14.03 -43.96 -13.78L-44.7 -13.78C-44.83 -13.44 -44.89 -13.04 -44.89 -12.58C-44.89 -12.12 -44.7 -11.73 -44.33 -11.39C-43.96 -11.06 -43.46 -10.89 -42.84 -10.89C-42.22 -10.89 -41.72 -11.11 -41.34 -11.53C-40.96 -11.96 -40.77 -12.47 -40.77 -13.06C-40.77 -14.1 -41.2 -14.94 -42.05 -15.58C-42.9 -16.23 -44.13 -16.55 -45.73 -16.55C-48.07 -16.55 -49.91 -15.74 -51.26 -14.11C-52.6 -12.48 -53.27 -10.16 -53.27 -7.17ZM-47.69 -9C-47.33 -9.39 -46.88 -9.59 -46.36 -9.59C-45.83 -9.59 -45.46 -9.43 -45.26 -9.12C-45.15 -8.94 -45.06 -8.74 -44.99 -8.54C-44.92 -8.34 -44.87 -8.04 -44.84 -7.65C-44.81 -7.25 -44.79 -6.87 -44.78 -6.52C-44.78 -6.16 -44.77 -5.44 -44.77 -4.35C-44.77 -3.27 -44.87 -2.36 -45.05 -1.63C-45.18 -1.13 -45.37 -0.78 -45.65 -0.57C-45.92 -0.36 -46.32 -0.26 -46.87 -0.26C-47.41 -0.26 -47.81 -0.46 -48.06 -0.86C-48.19 -1.09 -48.3 -1.32 -48.38 -1.52C-48.46 -1.73 -48.52 -2.07 -48.56 -2.53C-48.59 -2.98 -48.62 -3.38 -48.63 -3.71C-48.63 -4.05 -48.64 -4.64 -48.64 -5.5C-48.64 -6.37 -48.57 -7.06 -48.44 -7.6C-48.31 -8.14 -48.06 -8.6 -47.69 -9Z M-38.56 -6.47L-32.69 -6.47L-32.69 -7.17L-38.56 -7.17Z M-29.36 -15.55C-30.26 -14.88 -30.71 -14.03 -30.71 -12.99C-30.71 -12.37 -30.54 -11.85 -30.19 -11.44C-29.84 -11.03 -29.35 -10.82 -28.71 -10.82C-28.08 -10.82 -27.56 -10.99 -27.18 -11.32C-26.79 -11.66 -26.59 -12.05 -26.59 -12.51C-26.59 -12.97 -26.66 -13.36 -26.78 -13.69L-27.48 -13.69C-27.57 -13.94 -27.62 -14.22 -27.62 -14.55C-27.62 -14.87 -27.48 -15.22 -27.2 -15.57C-26.92 -15.93 -26.43 -16.11 -25.73 -16.11C-25.03 -16.11 -24.54 -15.86 -24.24 -15.35C-23.95 -14.85 -23.8 -13.91 -23.8 -12.53C-23.8 -11.16 -24.13 -9.9 -24.8 -8.76C-25.47 -7.62 -26.6 -6.32 -28.2 -4.86L-30.55 -2.7L-30.55 0L-19.61 0L-19.38 -6.45L-19.77 -6.45C-19.96 -5.45 -20.28 -4.73 -20.73 -4.26C-21.18 -3.79 -21.94 -3.56 -23.01 -3.56L-28.6 -3.56L-27.18 -4.59C-27.01 -4.71 -26.41 -5.14 -25.38 -5.88C-24.36 -6.61 -23.38 -7.36 -22.45 -8.1C-21.83 -8.58 -21.39 -8.97 -21.14 -9.26C-20.88 -9.56 -20.62 -9.9 -20.34 -10.28C-20.07 -10.66 -19.9 -11.02 -19.82 -11.37C-19.74 -11.72 -19.7 -12.11 -19.7 -12.55C-19.7 -13.88 -20.19 -14.88 -21.16 -15.55C-22.13 -16.22 -23.51 -16.55 -25.31 -16.55C-27.11 -16.55 -28.46 -16.22 -29.36 -15.55Z M-11.89 -8.54C-11.64 -7.95 -11.51 -6.92 -11.51 -5.45C-11.51 -3.97 -11.56 -2.88 -11.65 -2.16C-11.73 -1.67 -11.84 -1.3 -11.98 -1.07C-12.12 -0.84 -12.32 -0.64 -12.58 -0.48C-12.84 -0.31 -13.23 -0.23 -13.75 -0.23C-14.26 -0.23 -14.65 -0.38 -14.91 -0.69C-15.17 -0.99 -15.3 -1.31 -15.3 -1.64C-15.3 -1.97 -15.26 -2.27 -15.16 -2.51L-14.4 -2.51C-14.26 -2.87 -14.19 -3.3 -14.19 -3.81C-14.19 -4.31 -14.37 -4.72 -14.73 -5.04C-15.1 -5.36 -15.6 -5.52 -16.25 -5.52C-16.89 -5.52 -17.4 -5.31 -17.76 -4.89C-18.12 -4.47 -18.31 -3.94 -18.31 -3.29C-18.31 -2.65 -18.15 -2.08 -17.83 -1.59C-17.51 -1.11 -17.1 -0.73 -16.58 -0.47C-15.64 0 -14.61 0.23 -13.49 0.23C-11.41 0.23 -9.78 -0.24 -8.59 -1.2C-7.4 -2.15 -6.81 -3.46 -6.81 -5.12C-6.81 -6.42 -7.22 -7.53 -8.04 -8.45C-8.48 -8.93 -9.1 -9.31 -9.9 -9.58C-10.71 -9.85 -11.72 -9.99 -12.93 -9.99C-14.14 -9.99 -15.31 -9.68 -16.45 -9.08L-16.33 -13.59L-11.25 -12.27C-10.26 -12 -9.61 -11.87 -9.3 -11.87C-8.99 -11.87 -8.73 -11.99 -8.53 -12.22C-8.16 -12.67 -7.86 -14.08 -7.62 -16.46L-7.97 -16.5C-8.07 -16.15 -8.18 -15.89 -8.31 -15.75C-8.44 -15.6 -8.66 -15.53 -8.96 -15.53C-9.26 -15.53 -10.38 -15.62 -12.3 -15.82C-14.23 -16.01 -15.66 -16.18 -16.61 -16.32L-16.98 -16.04L-16.98 -8.61L-16.58 -8.43C-15.51 -9.09 -14.53 -9.43 -13.63 -9.43C-12.73 -9.43 -12.15 -9.13 -11.89 -8.54Z M-3.15 -15.69L-3.15 -0.44L-5.6 -0.44L-5.6 0L3.2 0L3.2 -0.44L1.38 -0.44L1.38 -16.55L-0.5 -16.55L-5.76 -15.83L-5.71 -15.36Z M5.95 -15.55C5.05 -14.88 4.6 -14.03 4.6 -12.99C4.6 -12.37 4.77 -11.85 5.12 -11.44C5.47 -11.03 5.96 -10.82 6.6 -10.82C7.24 -10.82 7.75 -10.99 8.14 -11.32C8.52 -11.66 8.72 -12.05 8.72 -12.51C8.72 -12.97 8.66 -13.36 8.53 -13.69L7.83 -13.69C7.74 -13.94 7.69 -14.22 7.69 -14.55C7.69 -14.87 7.83 -15.22 8.11 -15.57C8.39 -15.93 8.88 -16.11 9.58 -16.11C10.28 -16.11 10.77 -15.86 11.07 -15.35C11.36 -14.85 11.51 -13.91 11.51 -12.53C11.51 -11.16 11.18 -9.9 10.51 -8.76C9.84 -7.62 8.71 -6.32 7.11 -4.86L4.76 -2.7L4.76 0L15.7 0L15.93 -6.45L15.54 -6.45C15.35 -5.45 15.03 -4.73 14.58 -4.26C14.13 -3.79 13.37 -3.56 12.3 -3.56L6.72 -3.56L8.14 -4.59C8.31 -4.71 8.9 -5.14 9.93 -5.88C10.95 -6.61 11.93 -7.36 12.86 -8.1C13.48 -8.58 13.92 -8.97 14.18 -9.26C14.43 -9.56 14.7 -9.9 14.97 -10.28C15.24 -10.66 15.41 -11.02 15.49 -11.37C15.57 -11.72 15.61 -12.11 15.61 -12.55C15.61 -13.88 15.12 -14.88 14.15 -15.55C13.18 -16.22 11.8 -16.55 10 -16.55C8.2 -16.55 6.85 -16.22 5.95 -15.55Z M19.01 -15.54C18.07 -14.86 17.61 -14.01 17.61 -12.99C17.61 -12.37 17.78 -11.85 18.13 -11.44C18.48 -11.03 18.97 -10.82 19.61 -10.82C20.25 -10.82 20.76 -10.99 21.15 -11.32C21.54 -11.66 21.73 -12.05 21.73 -12.51C21.73 -12.97 21.67 -13.36 21.54 -13.69L20.87 -13.69C20.77 -13.94 20.73 -14.22 20.73 -14.55C20.73 -14.87 20.86 -15.22 21.11 -15.58C21.37 -15.95 21.8 -16.13 22.4 -16.13C23.01 -16.13 23.44 -15.85 23.7 -15.28C23.95 -14.71 24.08 -13.78 24.08 -12.46C24.08 -11.15 23.87 -10.24 23.44 -9.73C23.01 -9.22 22.12 -8.89 20.75 -8.75L20.82 -8.24C21.61 -8.32 22.29 -8.42 22.85 -8.54C23.47 -8.23 23.94 -7.78 24.25 -7.18C24.57 -6.58 24.73 -5.63 24.73 -4.31C24.73 -2.99 24.56 -1.98 24.23 -1.28C23.9 -0.58 23.27 -0.23 22.36 -0.23C21.05 -0.23 20.4 -0.78 20.4 -1.89C20.4 -2.15 20.45 -2.41 20.54 -2.65L21.26 -2.65C21.39 -2.98 21.45 -3.37 21.45 -3.83C21.45 -4.29 21.26 -4.68 20.89 -5.02C20.52 -5.35 20.01 -5.52 19.38 -5.52C18.74 -5.52 18.24 -5.31 17.88 -4.89C17.51 -4.47 17.33 -3.88 17.33 -3.12C17.33 -2.36 17.61 -1.7 18.18 -1.15C18.75 -0.6 19.39 -0.23 20.11 -0.05C20.83 0.14 21.61 0.23 22.45 0.23C24.59 0.23 26.26 -0.2 27.47 -1.07C28.67 -1.94 29.27 -3.12 29.27 -4.61C29.27 -5.82 28.81 -6.8 27.9 -7.56C26.98 -8.33 25.56 -8.78 23.64 -8.92L23.64 -8.96C25.19 -9.23 26.38 -9.69 27.21 -10.35C28.04 -11.01 28.46 -11.84 28.46 -12.85C28.46 -15.32 26.69 -16.55 23.15 -16.55C21.32 -16.55 19.94 -16.21 19.01 -15.54Z M32.76 -0.45C33.24 0 33.9 0.23 34.74 0.23C35.27 0.23 35.75 0.18 36.18 0.07L36.35 -0.21C35.88 -0.88 35.65 -1.61 35.65 -2.4C35.65 -3.19 35.81 -4.02 36.13 -4.9C36.44 -5.78 37.18 -7.23 38.33 -9.26L40.91 -13.78L40.91 -16.29L30.48 -16.29L30.23 -10.38L30.6 -10.38C30.8 -11.41 31.07 -12.05 31.42 -12.33C31.77 -12.6 32.5 -12.73 33.6 -12.73L39.56 -12.73L35.72 -8.29C34.18 -6.5 33.19 -5.2 32.73 -4.39C32.27 -3.57 32.04 -2.83 32.04 -2.15C32.04 -1.48 32.28 -0.91 32.76 -0.45Z M54.74 -9.15C54.74 -14.08 52.58 -16.55 48.26 -16.55C46.34 -16.55 44.76 -16.09 43.53 -15.18C42.29 -14.26 41.68 -12.87 41.68 -11.01C41.68 -9.44 42.13 -8.21 43.03 -7.31C43.93 -6.41 45.08 -5.96 46.47 -5.96C48.12 -5.96 49.34 -6.59 50.15 -7.84C50.13 -5.04 49.89 -3.06 49.42 -1.93C48.94 -0.8 48.19 -0.23 47.15 -0.23C46.5 -0.23 46 -0.38 45.67 -0.66C45.34 -0.95 45.17 -1.28 45.17 -1.64C45.17 -2.01 45.22 -2.3 45.33 -2.54L46.03 -2.54C46.15 -2.88 46.22 -3.28 46.22 -3.74C46.22 -4.19 46.03 -4.59 45.67 -4.92C45.3 -5.26 44.81 -5.42 44.18 -5.42C43.55 -5.42 43.05 -5.19 42.67 -4.74C42.29 -4.28 42.1 -3.74 42.1 -3.12C42.1 -2.13 42.56 -1.32 43.48 -0.7C44.4 -0.08 45.68 0.23 47.31 0.23C49.64 0.23 51.46 -0.58 52.77 -2.2C54.08 -3.82 54.74 -6.14 54.74 -9.15ZM49.16 -7.32C48.8 -6.92 48.35 -6.73 47.82 -6.73C47.29 -6.73 46.93 -6.88 46.73 -7.19C46.62 -7.38 46.53 -7.57 46.46 -7.77C46.39 -7.98 46.34 -8.27 46.31 -8.67C46.28 -9.07 46.26 -9.44 46.25 -9.8C46.24 -10.16 46.24 -10.66 46.24 -11.32C46.24 -11.98 46.25 -12.51 46.26 -12.9C46.31 -14 46.46 -14.77 46.73 -15.22C47.07 -15.78 47.59 -16.06 48.29 -16.06C48.91 -16.06 49.34 -15.86 49.57 -15.46C49.69 -15.22 49.79 -15 49.87 -14.79C49.95 -14.58 50 -14.25 50.03 -13.79C50.06 -13.33 50.08 -12.94 50.09 -12.6C50.1 -12.27 50.1 -11.67 50.1 -10.81C50.1 -9.95 50.04 -9.25 49.91 -8.72C49.77 -8.18 49.53 -7.72 49.16 -7.32Z M59.72 0L67.79 0L67.79 -0.44L66.19 -0.44L66.19 -4.17L68.49 -4.17L68.49 -2.44L68.93 -2.44L68.93 -6.75L68.49 -6.75L68.49 -4.73L66.19 -4.73L66.19 -16.29L62.16 -16.29L55.6 -4.61L55.6 -4.17L61.9 -4.17L61.9 -0.44L59.72 -0.44ZM56.34 -4.73L61.9 -14.52L61.9 -4.73Z"></path></g><g id="SvgjsG2561" class="BVgVRA3hP" transform="translate(43.955978818018465, 56.324134363625774) scale(0.7577929319370963)" light-content="false" non-strokable="false" fill="#1c1a1a"><path d="M99.307 14.812c-.018-.009-.059-.056-.126-.122l.014-.004c-.032-.03-.067-.06-.102-.094a15.112 15.112 0 0 0-2.752-2.314 2.84 2.84 0 0 0 .162-.836c-.06-1.424-.937-2.071-1.478-2.354a18.819 18.819 0 0 0-1.121-2.894C92.666 3.557 89.675.074 84.827.029A8.396 8.396 0 0 0 84.149 0c-1.425.011-4.472.238-7.408 2.493-2.967 2.257-5.165 6.537-5.117 12.75l.045.536s.062.377.136 1.15c.07.79.148 1.917.148 3.238.002 2.652-.327 6.083-1.427 9.009-1.138 2.955-2.837 5.279-5.793 6.634l-.157.079c-.128.106-13.389 6.856-20.705 13.774-2.901 1.07-13.328 5.163-20.612 13.024a195.542 195.542 0 0 0-8.1 3.836c-4.715 2.408-9.803 5.091-12.703 7.913l-.295.338c-.398.483-.794 1.386-.777 2.276.112 1.52.678 2.296 1.185 2.764a3.437 3.437 0 0 0-.227.27c-.42.52-.828 1.021-1.199 1.519-.186.253-.364.495-.558.831-.161.387-.501.636-.584 2.019-.021.631.245 1.788 1.142 2.593a3.562 3.562 0 0 0 2.381.913l.733-.082c8.25-1.84 19.964-3.506 29.549-4.692a732.078 732.078 0 0 1 15.256-1.728c1.232 1.533 3.182 3.891 4.505 5.097.371.336.809.538 1.261.681l2.552 6.368c-1.739 0-3.055 0-3.058-.008a2.26 2.26 0 0 0-2.262 2.264 2.256 2.256 0 0 0 2.262 2.259h11.285c.467 0 .775 0 .892.019h.014c.134.094.56.492 1.261 1.197a2.246 2.246 0 0 0 3.195 0 2.26 2.26 0 0 0 0-3.188c-.95-.919-1.438-1.52-2.469-2.071-.984-.471-1.798-.471-2.58-.471h-3.778c-.026-.15-.024-.311-.086-.466l-3.133-7.834c.162-.398.279-.822.279-1.271.015-1.77.981-3.107 4.114-4.967 4.578-2.674 12.484-4.782 19.467-8.285 6.898-3.378 13.68-9.211 13.62-18.98-.061-5.5-2.525-9.783-4.539-14.798-2.041-4.974-3.961-10.718-4.022-19.13.102-1.007.395-1.464.664-1.735.335-.312.928-.555 1.868-.557 1.844-.053 4.584 1.177 5.619 2.292.86.86 2.238.893 3.135.063a2.262 2.262 0 0 0 .179-3.124zM85.767 4.49c.588 0 1.068.481 1.068 1.077 0 .593-.48 1.079-1.068 1.079a1.078 1.078 0 0 1 0-2.156zm5.462 36.738a1.691 1.691 0 0 1-.546 2.329c-.275.171-.589.25-.891.25a1.686 1.686 0 0 1-1.438-.792c-3.189-5.08-7.923-5.867-10.905-5.896-1.47 0-2.336.206-2.336.206h-.002a1.7 1.7 0 0 1-2.028-1.285 1.705 1.705 0 0 1 1.28-2.028c.091-.016 1.288-.275 3.086-.275 3.536-.029 9.792 1.095 13.78 7.491z"></path></g><g id="SvgjsG2562" class="Yi4x3nmgJ" transform="translate(426.45536802151355, 46.63932835696449) scale(-0.8546397992650389 0.8546397992650389)" light-content="false" non-strokable="false" fill="#060606"><path d="M99.307 14.812c-.018-.009-.059-.056-.126-.122l.014-.004c-.032-.03-.067-.06-.102-.094a15.112 15.112 0 0 0-2.752-2.314 2.84 2.84 0 0 0 .162-.836c-.06-1.424-.937-2.071-1.478-2.354a18.819 18.819 0 0 0-1.121-2.894C92.666 3.557 89.675.074 84.827.029A8.396 8.396 0 0 0 84.149 0c-1.425.011-4.472.238-7.408 2.493-2.967 2.257-5.165 6.537-5.117 12.75l.045.536s.062.377.136 1.15c.07.79.148 1.917.148 3.238.002 2.652-.327 6.083-1.427 9.009-1.138 2.955-2.837 5.279-5.793 6.634l-.157.079c-.128.106-13.389 6.856-20.705 13.774-2.901 1.07-13.328 5.163-20.612 13.024a195.542 195.542 0 0 0-8.1 3.836c-4.715 2.408-9.803 5.091-12.703 7.913l-.295.338c-.398.483-.794 1.386-.777 2.276.112 1.52.678 2.296 1.185 2.764a3.437 3.437 0 0 0-.227.27c-.42.52-.828 1.021-1.199 1.519-.186.253-.364.495-.558.831-.161.387-.501.636-.584 2.019-.021.631.245 1.788 1.142 2.593a3.562 3.562 0 0 0 2.381.913l.733-.082c8.25-1.84 19.964-3.506 29.549-4.692a732.078 732.078 0 0 1 15.256-1.728c1.232 1.533 3.182 3.891 4.505 5.097.371.336.809.538 1.261.681l2.552 6.368c-1.739 0-3.055 0-3.058-.008a2.26 2.26 0 0 0-2.262 2.264 2.256 2.256 0 0 0 2.262 2.259h11.285c.467 0 .775 0 .892.019h.014c.134.094.56.492 1.261 1.197a2.246 2.246 0 0 0 3.195 0 2.26 2.26 0 0 0 0-3.188c-.95-.919-1.438-1.52-2.469-2.071-.984-.471-1.798-.471-2.58-.471h-3.778c-.026-.15-.024-.311-.086-.466l-3.133-7.834c.162-.398.279-.822.279-1.271.015-1.77.981-3.107 4.114-4.967 4.578-2.674 12.484-4.782 19.467-8.285 6.898-3.378 13.68-9.211 13.62-18.98-.061-5.5-2.525-9.783-4.539-14.798-2.041-4.974-3.961-10.718-4.022-19.13.102-1.007.395-1.464.664-1.735.335-.312.928-.555 1.868-.557 1.844-.053 4.584 1.177 5.619 2.292.86.86 2.238.893 3.135.063a2.262 2.262 0 0 0 .179-3.124zM85.767 4.49c.588 0 1.068.481 1.068 1.077 0 .593-.48 1.079-1.068 1.079a1.078 1.078 0 0 1 0-2.156zm5.462 36.738a1.691 1.691 0 0 1-.546 2.329c-.275.171-.589.25-.891.25a1.686 1.686 0 0 1-1.438-.792c-3.189-5.08-7.923-5.867-10.905-5.896-1.47 0-2.336.206-2.336.206h-.002a1.7 1.7 0 0 1-2.028-1.285 1.705 1.705 0 0 1 1.28-2.028c.091-.016 1.288-.275 3.086-.275 3.536-.029 9.792 1.095 13.78 7.491z"></path></g></g></g></svg>